<svg width="64" height="64" viewBox="0 0 64 64" fill="none" xmlns="http://www.w3.org/2000/svg">
<rect width="64" height="64" rx="16" fill="#373430"/>
<mask id="mask0_201_12729" style="mask-type:alpha" maskUnits="userSpaceOnUse" x="9" y="22" width="44" height="20">
<rect x="9.46939" y="22.8574" width="43.4286" height="18.6122" fill="#D9D9D9"/>
</mask>
<g mask="url(#mask0_201_12729)">
<path d="M36.0329 26.7397C35.0274 24.9982 32.5138 24.9982 31.5083 26.7397L25.7113 36.7805C24.7058 38.522 25.9626 40.6989 27.9735 40.6989L37.9284 40.6989C37.9292 40.6989 37.93 40.6989 37.9309 40.6989H49.525C51.5359 40.6989 52.7927 38.522 51.7873 36.7805L45.9902 26.7397C44.9847 24.9982 42.4711 24.9982 41.4657 26.7397L39.8804 29.4855C39.3777 30.3562 38.1208 30.3562 37.6181 29.4855L36.0329 26.7397Z" fill="#E6E2DB"/>
<path d="M21.0384 37.551C20.0329 39.2925 17.5193 39.2925 16.5139 37.551L10.7168 27.5102C9.71133 25.7687 10.9682 23.5918 12.9791 23.5918L24.5732 23.5918C26.5841 23.5918 27.8409 25.7687 26.8355 27.5102L21.0384 37.551Z" fill="#E6E2DB"/>
</g>
</svg>
