<svg width="360" height="66" viewBox="0 0 360 66" fill="none" xmlns="http://www.w3.org/2000/svg">
<g clip-path="url(#clip0_1113_7000)">
<rect width="360" height="66" fill="#231FDA"/>
<g opacity="0.23">
<path d="M262.459 2.00432C251.493 17.7891 227.41 23.4681 208.785 14.6614C190.159 5.85472 183.924 -14.1591 194.89 -29.9438C205.855 -45.7286 229.938 -51.4076 248.564 -42.6009C267.19 -33.7942 273.424 -13.7804 262.459 2.00432ZM195.347 -29.7275C184.527 -14.1521 190.675 5.58387 209.054 14.2738C227.433 22.9637 251.181 17.3635 262.001 1.78805C272.816 -13.7796 266.674 -33.5234 248.295 -42.2133C229.916 -50.9032 206.162 -45.2952 195.347 -29.7275Z" fill="url(#paint0_linear_1113_7000)"/>
<path d="M265.624 3.50094C254.885 18.9601 231.311 24.5192 213.069 15.8942C194.827 7.26912 188.725 -12.3219 199.464 -27.7811C210.203 -43.2402 233.777 -48.7993 252.019 -40.1743C270.261 -31.5492 276.358 -11.9504 265.624 3.50094ZM199.93 -27.5605C189.342 -12.3184 195.362 7.00691 213.347 15.5108C231.333 24.0148 254.587 18.531 265.176 3.28899C275.764 -11.9531 269.744 -31.2784 251.759 -39.7823C233.773 -48.2862 210.519 -42.8025 199.93 -27.5605Z" fill="url(#paint1_linear_1113_7000)"/>
<path d="M268.799 5.00189C258.291 20.1276 235.211 25.5702 217.363 17.1312C199.514 8.69215 193.539 -10.4882 204.047 -25.614C214.555 -40.7397 237.635 -46.1823 255.483 -37.7433C273.331 -29.3042 279.306 -10.1239 268.799 5.00189ZM204.505 -25.3977C194.142 -10.4813 200.031 8.4213 217.632 16.7436C235.233 25.0658 257.979 19.702 268.341 4.78561C278.703 -10.1308 272.815 -29.0334 255.214 -37.3556C237.613 -45.6779 214.867 -40.3141 204.505 -25.3977Z" fill="url(#paint2_linear_1113_7000)"/>
<path d="M271.964 6.49851C261.682 21.2986 239.111 26.6213 221.647 18.3639C204.183 10.1065 198.34 -8.65109 208.621 -23.4512C218.903 -38.2514 241.474 -43.574 258.938 -35.3166C276.402 -27.0593 282.245 -8.30163 271.964 6.49851ZM209.079 -23.235C198.943 -8.64414 204.708 9.84002 221.916 17.9763C239.133 26.1169 261.376 20.8653 271.506 6.28223C281.637 -8.30083 275.877 -26.7927 258.669 -34.929C241.452 -43.0696 219.209 -37.818 209.079 -23.235Z" fill="url(#paint3_linear_1113_7000)"/>
<path d="M275.138 7.99945C265.083 22.474 243.011 27.6723 225.941 19.601C208.87 11.5296 203.155 -6.81738 213.205 -21.2842C223.254 -35.7509 245.332 -40.957 262.402 -32.8857C279.473 -24.8143 285.188 -6.46732 275.138 7.99945ZM213.653 -21.0722C203.748 -6.81477 209.377 11.2544 226.201 19.209C243.024 27.1636 264.767 22.0363 274.672 7.77886C284.576 -6.47858 278.948 -24.5477 262.124 -32.5023C245.3 -40.4569 223.557 -35.3297 213.653 -21.0722Z" fill="url(#paint4_linear_1113_7000)"/>
<path d="M278.304 9.49609C268.48 23.6372 246.906 28.7311 230.21 20.8371C213.524 12.9474 207.931 -4.98115 217.76 -19.1301C227.584 -33.2712 249.158 -38.3651 265.854 -30.4711C282.544 -22.5693 288.127 -4.64507 278.304 9.49609ZM218.227 -18.9095C208.549 -4.97764 214.049 12.6809 230.489 20.4538C246.928 28.2267 268.177 23.216 277.855 9.28413C287.534 -4.64769 282.033 -22.3062 265.593 -30.0791C249.149 -37.8443 227.905 -32.8413 218.227 -18.9095Z" fill="url(#paint5_linear_1113_7000)"/>
<path d="M281.478 10.997C271.881 24.8126 250.806 29.7822 234.504 22.0742C218.202 14.3661 212.746 -3.14745 222.344 -16.963C231.941 -30.7785 253.016 -35.7481 269.318 -28.0401C285.62 -20.3321 291.076 -2.8185 281.478 10.997ZM222.801 -16.7467C213.354 -3.14826 218.718 14.0953 234.773 21.6865C250.829 29.2778 271.569 24.387 281.021 10.7808C290.473 -2.82545 285.104 -20.0612 269.048 -27.6525C252.993 -35.2437 232.248 -30.3452 222.801 -16.7467Z" fill="url(#paint6_linear_1113_7000)"/>
<path d="M284.643 12.4937C275.272 25.9836 254.706 30.8332 238.788 23.3069C222.87 15.7805 217.547 -1.31032 226.918 -14.8002C236.289 -28.2902 256.855 -33.1398 272.773 -25.6135C288.691 -18.0871 294.009 -0.98851 284.643 12.4937ZM227.375 -14.584C218.155 -1.31113 223.396 15.514 239.058 22.9192C254.72 30.3245 274.966 25.5502 284.186 12.2774C293.406 -0.995459 288.165 -17.8206 272.503 -25.2258C256.842 -32.6311 236.596 -27.8568 227.375 -14.584Z" fill="url(#paint7_linear_1113_7000)"/>
<path d="M287.818 13.9946C278.678 27.1511 258.607 31.8843 243.082 24.5439C227.557 17.2035 222.361 0.523382 231.501 -12.6332C240.641 -25.7897 260.712 -30.5228 276.237 -23.1825C291.762 -15.8421 296.958 0.83806 287.818 13.9946ZM231.949 -12.4212C222.955 0.526003 228.065 16.9284 243.342 24.1519C258.62 31.3755 278.357 26.7212 287.351 13.774C296.346 0.826778 291.236 -15.5756 275.958 -22.7992C260.681 -30.0227 240.938 -25.3607 231.949 -12.4212Z" fill="url(#paint8_linear_1113_7000)"/>
<path d="M290.983 15.4912C282.07 28.3221 262.507 32.9353 247.366 25.7766C232.226 18.6179 227.162 2.36051 236.075 -10.4704C244.989 -23.3013 264.552 -27.9145 279.692 -20.7558C294.832 -13.5971 299.897 2.66029 290.983 15.4912ZM236.523 -10.2585C227.761 2.35538 232.742 18.3471 247.627 25.3847C262.511 32.4222 281.754 27.8845 290.517 15.2706C299.279 2.65677 294.298 -13.3349 279.414 -20.3725C264.529 -27.4101 245.286 -22.8723 236.523 -10.2585Z" fill="url(#paint9_linear_1113_7000)"/>
<path d="M294.158 16.9922C285.47 29.4975 266.402 33.9941 251.646 27.0171C236.889 20.0401 231.953 4.19331 240.64 -8.31199C249.327 -20.8173 268.396 -25.3139 283.152 -18.3369C297.903 -11.3521 302.84 4.49461 294.158 16.9922ZM241.107 -8.09139C232.57 4.19684 237.424 19.7779 251.924 26.6338C266.424 33.4897 285.173 29.0684 293.709 16.7802C302.246 4.49199 297.392 -11.089 282.892 -17.945C268.378 -24.7974 249.643 -20.3796 241.107 -8.09139Z" fill="url(#paint10_linear_1113_7000)"/>
<path d="M297.323 18.4888C288.867 30.6607 270.293 35.0409 255.93 28.2498C241.567 21.4588 236.762 6.03477 245.224 -6.14491C253.685 -18.3246 272.254 -22.697 286.616 -15.906C300.979 -9.11492 305.779 6.31685 297.323 18.4888ZM245.681 -5.92864C237.371 6.03397 242.093 21.1923 256.208 27.8665C270.324 34.5407 288.564 30.2394 296.875 18.2768C305.185 6.31423 300.463 -8.84407 286.347 -15.5183C272.231 -22.1926 253.991 -17.8912 245.681 -5.92864Z" fill="url(#paint11_linear_1113_7000)"/>
<path d="M300.497 19.9897C292.268 31.836 274.202 36.0962 260.224 29.4869C246.245 22.8775 241.568 7.86415 249.798 -3.98216C258.027 -15.8285 276.093 -20.0887 290.072 -13.4793C304.05 -6.86993 308.727 8.14342 300.497 19.9897ZM250.255 -3.76589C242.176 7.86335 246.77 22.611 260.493 29.0992C274.215 35.5875 291.961 31.4027 300.04 19.7735C308.119 8.14422 303.525 -6.60341 289.802 -13.0917C276.08 -19.5799 258.334 -15.3951 250.255 -3.76589Z" fill="url(#paint12_linear_1113_7000)"/>
<path d="M303.663 21.4864C295.659 33.0071 278.093 37.1429 264.508 30.7196C250.923 24.2962 246.374 9.69353 254.372 -1.81942C262.37 -13.3324 279.941 -17.476 293.527 -11.0526C307.112 -4.62927 311.661 9.97342 303.663 21.4864ZM254.829 -1.60314C246.977 9.70047 251.439 24.0254 264.777 30.3319C278.115 36.6385 295.353 32.5737 303.205 21.2701C311.058 9.96647 306.595 -4.35842 293.257 -10.665C279.919 -16.9716 262.682 -12.9068 254.829 -1.60314Z" fill="url(#paint13_linear_1113_7000)"/>
<path d="M306.837 22.9873C299.065 34.1746 282.002 38.1983 268.802 31.9566C255.601 25.7149 251.183 11.535 258.955 0.347654C266.727 -10.8397 283.79 -14.8634 296.991 -8.62166C310.192 -2.37997 314.609 11.8 306.837 22.9873ZM259.403 0.559607C251.777 11.5376 256.117 25.4441 269.062 31.5646C282.016 37.6896 298.75 33.737 306.371 22.7667C313.997 11.7887 309.657 -2.11777 296.712 -8.23835C283.767 -14.3589 267.024 -10.4106 259.403 0.559607Z" fill="url(#paint14_linear_1113_7000)"/>
<path d="M310.002 24.4839C302.457 35.3456 285.888 39.2528 273.071 33.1928C260.255 27.1327 255.965 13.3635 263.511 2.50175C271.056 -8.35995 287.625 -12.2671 300.442 -6.20709C313.259 -0.147066 317.548 13.6222 310.002 24.4839ZM263.977 2.72235C256.583 13.367 260.78 26.8662 273.35 32.8095C285.92 38.7527 302.154 34.9244 309.554 24.272C316.954 13.6196 312.752 0.128115 300.182 -5.81512C287.612 -11.7584 271.372 -7.92227 263.977 2.72235Z" fill="url(#paint15_linear_1113_7000)"/>
<path d="M313.177 25.9849C305.858 36.521 289.797 40.3082 277.365 34.4298C264.932 28.5515 260.775 15.2049 268.094 4.66883C275.408 -5.85951 291.474 -9.65446 303.906 -3.77611C316.339 2.10224 320.491 15.4565 313.177 25.9849ZM268.552 4.8851C261.383 15.2041 265.458 28.2849 277.634 34.0422C289.811 39.7994 305.551 36.0876 312.719 25.7686C319.888 15.4496 315.813 2.36877 303.637 -3.38847C291.46 -9.1457 275.72 -5.4339 268.552 4.8851Z" fill="url(#paint16_linear_1113_7000)"/>
<path d="M316.342 27.4815C309.255 37.6842 293.689 41.3549 281.649 35.6625C269.61 29.9702 265.581 17.0343 272.668 6.83158C279.756 -3.37114 295.322 -7.04181 307.361 -1.34946C319.4 4.3429 323.43 17.2788 316.342 27.4815ZM273.126 7.04785C266.183 17.0412 270.127 29.6993 281.919 35.2749C293.711 40.8505 308.943 37.2586 315.885 27.2652C322.827 17.2718 318.884 4.61375 307.092 -0.961817C295.3 -6.53738 280.063 -2.93779 273.126 7.04785Z" fill="url(#paint17_linear_1113_7000)"/>
<path d="M319.517 28.9824C312.655 38.8595 297.598 42.4103 285.943 36.8996C274.288 31.3889 270.39 18.8757 277.252 8.99864C284.113 -0.878456 299.17 -4.42916 310.825 1.08152C322.48 6.5922 326.378 19.1053 319.517 28.9824ZM277.709 9.21492C270.998 18.8749 274.814 31.1224 286.212 36.5119C297.611 41.9015 312.349 38.4262 319.059 28.7662C325.77 19.1062 321.955 6.85873 310.556 1.46916C299.157 -3.92041 284.42 -0.445102 277.709 9.21492Z" fill="url(#paint18_linear_1113_7000)"/>
<path d="M322.691 30.4834C316.056 40.0349 301.498 43.4613 290.237 38.1366C278.975 32.8119 275.205 20.7094 281.835 11.1657C288.465 1.62199 303.028 -1.81218 314.289 3.51251C325.551 8.83719 329.321 20.9397 322.691 30.4834ZM282.283 11.3777C275.799 20.7121 279.482 32.5367 290.497 37.7446C301.511 42.9525 315.74 39.5972 322.225 30.2628C328.709 20.9284 325.026 9.10371 314.011 3.89582C302.996 -1.31208 288.768 2.04327 282.283 11.3777Z" fill="url(#paint19_linear_1113_7000)"/>
<path d="M325.856 31.98C319.453 41.1981 305.393 44.5201 294.506 39.3728C283.62 34.2254 279.982 22.5457 286.391 13.3198C292.8 4.09396 306.854 0.779743 317.741 5.92708C328.627 11.0744 332.26 22.7619 325.856 31.98ZM286.857 13.5404C280.599 22.5492 284.155 33.9632 294.785 38.9894C305.415 44.0157 319.15 40.7768 325.408 31.7681C331.666 22.7593 328.111 11.3453 317.481 6.31904C306.85 1.29281 293.11 4.53938 286.857 13.5404Z" fill="url(#paint20_linear_1113_7000)"/>
<path d="M329.022 33.4766C322.844 42.3691 309.284 45.5668 298.791 40.6055C288.298 35.6441 284.787 24.3751 290.965 15.4826C297.142 6.59008 310.703 3.39238 321.196 8.35372C331.689 13.3151 335.199 24.5842 329.022 33.4766ZM291.431 15.7032C285.405 24.3786 288.832 35.3819 299.069 40.2222C309.306 45.0624 322.547 41.9401 328.573 33.2647C334.6 24.5893 331.173 13.5859 320.936 8.7457C310.699 3.90546 297.458 7.02775 291.431 15.7032Z" fill="url(#paint21_linear_1113_7000)"/>
<path d="M333.916 35.7908C327.512 45.0089 313.453 48.3309 302.566 43.1835C291.68 38.0362 288.041 26.3564 294.45 17.1306C300.859 7.90472 314.914 4.5905 325.8 9.73785C336.687 14.8852 340.32 26.5727 333.916 35.7908ZM294.917 17.3512C288.659 26.36 292.214 37.774 302.845 42.8002C313.475 47.8264 327.209 44.5876 333.468 35.5788C339.726 26.57 336.17 15.156 325.54 10.1298C314.91 5.10357 301.17 8.35016 294.917 17.3512Z" fill="url(#paint22_linear_1113_7000)"/>
<path d="M338.81 38.1049C332.175 47.6564 317.617 51.0828 306.356 45.7581C295.094 40.4335 291.324 28.331 297.954 18.7872C304.584 9.24352 319.147 5.80934 330.409 11.134C341.67 16.4587 345.44 28.5612 338.81 38.1049ZM298.402 18.9992C291.918 28.3336 295.601 40.1583 306.616 45.3662C317.63 50.5741 331.859 47.2187 338.344 37.8843C344.828 28.5499 341.145 16.7252 330.13 11.5173C319.125 6.31377 304.887 9.6648 298.402 18.9992Z" fill="url(#paint23_linear_1113_7000)"/>
<path d="M343.705 40.4191C336.843 50.2962 321.786 53.8469 310.131 48.3362C298.476 42.8255 294.578 30.3124 301.44 20.4353C308.301 10.5582 323.358 7.00745 335.013 12.5181C346.668 18.0288 350.566 30.542 343.705 40.4191ZM301.888 20.6472C295.177 30.3072 298.992 42.5547 310.391 47.9442C321.79 53.3338 336.531 49.8706 343.247 40.2028C349.963 30.535 346.143 18.2953 334.744 12.9058C323.345 7.51621 308.599 10.9872 301.888 20.6472Z" fill="url(#paint24_linear_1113_7000)"/>
<path d="M348.59 42.7289C341.502 52.9316 325.936 56.6023 313.897 50.9099C301.858 45.2176 297.828 32.2817 304.916 22.079C312.004 11.8762 327.57 8.20557 339.609 13.8979C351.648 19.5903 355.678 32.5262 348.59 42.7289ZM305.373 22.2952C298.431 32.2886 302.374 44.9467 314.166 50.5223C325.958 56.0978 341.19 52.506 348.132 42.5126C355.075 32.5192 351.132 19.8611 339.34 14.2856C327.547 8.71 312.31 12.3096 305.373 22.2952Z" fill="url(#paint25_linear_1113_7000)"/>
<path d="M353.484 45.043C346.165 55.5791 330.105 59.3663 317.672 53.4879C305.24 47.6096 301.082 34.2631 308.402 23.727C315.715 13.1986 331.781 9.40368 344.213 15.282C356.646 21.1604 360.798 34.5147 353.484 45.043ZM308.859 23.9432C301.69 34.2623 305.765 47.3431 317.942 53.1003C330.118 58.8575 345.858 55.1458 353.027 44.8267C360.195 34.5077 356.12 21.4269 343.944 15.6697C331.768 9.91243 316.027 13.6242 308.859 23.9432Z" fill="url(#paint26_linear_1113_7000)"/>
<path d="M358.379 47.3572C350.833 58.2189 334.264 62.126 321.447 56.066C308.631 50.006 304.342 36.2367 311.887 25.375C319.432 14.5133 336.001 10.6061 348.818 16.6661C361.629 22.7339 365.924 36.4955 358.379 47.3572ZM312.344 25.5913C304.95 36.2359 309.147 49.7351 321.717 55.6784C334.287 61.6216 350.521 57.7933 357.921 47.1409C365.321 36.4885 361.118 22.997 348.549 17.0538C335.979 11.1106 319.739 14.9466 312.344 25.5913Z" fill="url(#paint27_linear_1113_7000)"/>
<path d="M363.264 49.667C355.492 60.8543 338.429 64.878 325.228 58.6363C312.027 52.3946 307.61 38.2146 315.382 27.0273C323.153 15.84 340.216 11.8163 353.417 18.058C366.618 24.2997 371.035 38.4797 363.264 49.667ZM315.83 27.2393C308.204 38.2173 312.543 52.1237 325.488 58.2443C338.442 64.3692 355.176 60.4166 362.797 49.4464C370.423 38.4684 366.084 24.5619 353.139 18.4413C340.194 12.3207 323.451 16.269 315.83 27.2393Z" fill="url(#paint28_linear_1113_7000)"/>
<path d="M368.158 51.9811C360.155 63.5018 342.588 67.6377 329.003 61.2143C315.418 54.791 310.869 40.1883 318.867 28.6753C326.865 17.1624 344.437 13.0188 358.022 19.4421C371.607 25.8655 376.156 40.4682 368.158 51.9811ZM319.325 28.8916C311.472 40.1952 315.934 54.5201 329.273 60.8267C342.611 67.1333 359.848 63.0685 367.701 51.7648C375.553 40.4612 371.091 26.1363 357.753 19.8298C344.414 13.5232 327.177 17.588 319.325 28.8916Z" fill="url(#paint29_linear_1113_7000)"/>
<path d="M373.052 54.2953C364.823 66.1416 346.757 70.4017 332.778 63.7924C318.8 57.183 314.123 42.1697 322.353 30.3234C330.582 18.477 348.648 14.2169 362.626 20.8262C376.605 27.4356 381.282 42.4489 373.052 54.2953ZM322.81 30.5396C314.731 42.1689 319.325 56.9165 333.048 63.4047C346.77 69.893 364.516 65.7082 372.595 54.079C380.674 42.4497 376.08 27.7021 362.357 21.2139C348.635 14.7256 330.889 18.9104 322.81 30.5396Z" fill="url(#paint30_linear_1113_7000)"/>
<path d="M377.938 56.6051C369.482 68.777 350.907 73.1571 336.545 66.3661C322.182 59.5751 317.373 44.139 325.829 31.967C334.285 19.7951 352.859 15.415 367.222 22.206C381.594 29.0014 386.393 44.4331 377.938 56.6051ZM326.296 32.1876C317.985 44.1502 322.707 59.3085 336.823 65.9828C350.939 72.657 369.179 68.3557 377.489 56.3931C385.8 44.4305 381.078 29.2722 366.962 22.598C352.846 15.9237 334.606 20.225 326.296 32.1876Z" fill="url(#paint31_linear_1113_7000)"/>
<path d="M382.832 58.9192C374.145 71.4245 355.076 75.9212 340.32 68.9441C325.564 61.9671 320.627 46.1204 329.314 33.615C338.002 21.1097 357.07 16.6131 371.827 23.5901C386.577 30.5749 391.514 46.4217 382.832 58.9192ZM329.781 33.8357C321.245 46.1239 326.098 61.7049 340.598 68.5608C355.098 75.4167 373.847 70.9955 382.384 58.7073C390.92 46.419 386.066 30.838 371.566 23.9821C357.052 17.1296 338.317 21.5474 329.781 33.8357Z" fill="url(#paint32_linear_1113_7000)"/>
<path d="M387.726 61.2334C378.813 74.0643 359.25 78.6775 344.109 71.5188C328.969 64.3601 323.905 48.1026 332.818 35.2717C341.732 22.4408 361.295 17.8276 376.435 24.9863C391.575 32.145 396.64 48.4024 387.726 61.2334ZM333.267 35.4837C324.504 48.0975 329.485 64.0892 344.37 71.1268C359.254 78.1644 378.497 73.6266 387.26 61.0127C396.022 48.3989 391.041 32.4072 376.157 25.3696C361.272 18.332 342.029 22.8698 333.267 35.4837Z" fill="url(#paint33_linear_1113_7000)"/>
<path d="M392.611 63.5432C383.472 76.6997 363.4 81.4328 347.876 74.0925C332.351 66.7521 327.155 50.0719 336.295 36.9154C345.434 23.7589 365.506 19.0257 381.03 26.3661C396.555 33.7065 401.751 50.3866 392.611 63.5432ZM336.752 37.1317C327.758 50.0789 332.867 66.4813 348.145 73.7048C363.422 80.9284 383.16 76.2741 392.154 63.3269C401.148 50.3797 396.039 33.9773 380.761 26.7537C365.484 19.5302 345.741 24.1922 336.752 37.1317Z" fill="url(#paint34_linear_1113_7000)"/>
<path d="M397.506 65.8573C388.134 79.3472 367.569 84.1969 351.651 76.6705C335.733 69.1442 330.409 52.0533 339.78 38.5634C349.151 25.0735 369.717 20.2238 385.635 27.7502C401.553 35.2766 406.872 52.3751 397.506 65.8573ZM340.237 38.7797C331.017 52.0525 336.258 68.8776 351.92 76.2829C367.582 83.6881 387.828 78.9139 397.048 65.641C406.269 52.3682 401.028 35.5431 385.366 28.1378C369.704 20.7326 349.458 25.5069 340.237 38.7797Z" fill="url(#paint35_linear_1113_7000)"/>
<path d="M402.4 68.1715C392.803 81.987 371.728 86.9566 355.426 79.2486C339.124 71.5405 333.668 54.027 343.266 40.2114C352.863 26.3959 373.937 21.4263 390.24 29.1343C406.542 36.8424 411.998 54.3559 402.4 68.1715ZM343.723 40.4277C334.276 54.0262 339.64 71.2697 355.695 78.8609C371.75 86.4522 392.491 81.5614 401.943 67.9552C411.395 54.349 406.026 37.1132 389.97 29.522C373.915 21.9307 353.17 26.8293 343.723 40.4277Z" fill="url(#paint36_linear_1113_7000)"/>
<path d="M407.294 70.4856C397.471 84.6267 375.897 89.7207 359.201 81.8266C342.515 73.9369 336.922 56.0084 346.751 41.8594C356.575 27.7183 378.149 22.6244 394.844 30.5184C411.525 38.4159 417.118 56.3444 407.294 70.4856ZM347.208 42.0757C337.53 56.0075 343.031 73.6661 359.47 81.439C375.91 89.2119 397.159 84.2011 406.837 70.2693C416.515 56.3375 411.014 38.679 394.575 30.9061C378.13 23.1409 356.887 28.1439 347.208 42.0757Z" fill="url(#paint37_linear_1113_7000)"/>
<path d="M412.18 72.7954C402.124 87.2699 380.052 92.4683 362.982 84.3969C345.911 76.3255 340.196 57.9786 350.246 43.5118C360.296 29.045 382.373 23.8389 399.443 31.9103C416.514 39.9817 422.229 58.3286 412.18 72.7954ZM350.694 43.7237C340.79 57.9812 346.418 76.0503 363.242 84.0049C380.066 91.9595 401.809 86.8322 411.713 72.5748C421.617 58.3174 415.989 40.2482 399.165 32.2936C382.341 24.339 360.598 29.4663 350.694 43.7237Z" fill="url(#paint38_linear_1113_7000)"/>
<path d="M417.074 75.1096C406.792 89.9097 384.221 95.2323 366.757 86.9749C349.293 78.7176 343.45 59.9599 353.731 45.1598C364.013 30.3597 386.584 25.037 404.048 33.2944C421.512 41.5518 427.355 60.3094 417.074 75.1096ZM354.179 45.3718C344.043 59.9626 349.809 78.4467 367.017 86.583C384.225 94.7192 406.477 89.472 416.607 74.8889C426.738 60.3059 420.978 41.814 403.77 33.6777C386.562 25.5415 364.31 30.7887 354.179 45.3718Z" fill="url(#paint39_linear_1113_7000)"/>
<path d="M421.968 77.4237C411.461 92.5494 388.38 97.992 370.532 89.553C352.684 81.114 346.709 61.9336 357.217 46.8078C367.724 31.6821 390.804 26.2395 408.653 34.6785C426.501 43.1176 432.476 62.2979 421.968 77.4237ZM357.674 47.0241C347.312 61.9405 353.2 80.8431 370.801 89.1654C388.403 97.4876 411.149 92.1238 421.511 77.2074C431.873 62.291 425.985 43.3884 408.383 35.0662C390.782 26.7439 368.036 32.1077 357.674 47.0241Z" fill="url(#paint40_linear_1113_7000)"/>
<path d="M426.853 79.7335C416.114 95.1926 392.54 100.752 374.298 92.1267C356.057 83.5017 349.954 63.9106 360.693 48.4515C371.432 32.9924 395.007 27.4333 413.248 36.0583C431.49 44.6833 437.587 64.2821 426.853 79.7335ZM361.16 48.6721C350.571 63.9142 356.591 83.2395 374.577 91.7434C392.562 100.247 415.817 94.7636 426.405 79.5216C436.994 64.2795 430.974 44.9542 412.988 36.4503C395.003 27.9463 371.748 33.4301 361.16 48.6721Z" fill="url(#paint41_linear_1113_7000)"/>
<path d="M431.748 82.0476C420.782 97.8324 396.699 103.511 378.073 94.7048C359.448 85.898 353.213 65.8843 364.179 50.0995C375.144 34.3148 399.227 28.6357 417.853 37.4424C436.479 46.2491 442.713 66.2629 431.748 82.0476ZM364.645 50.3201C353.825 65.8956 359.973 85.6315 378.352 94.3215C396.731 103.011 420.479 97.4111 431.299 81.8357C442.114 66.268 435.972 46.5243 417.593 37.8344C399.214 29.1445 375.46 34.7525 364.645 50.3201Z" fill="url(#paint42_linear_1113_7000)"/>
</g>
<circle opacity="0.58" cx="57" cy="7" r="55" fill="url(#paint43_radial_1113_7000)"/>
<rect x="79" y="12" width="40" height="18" rx="9" fill="white"/>
<path d="M94.3281 15.5312V25.9492H93.4492V15.5312H94.3281ZM85.293 23.1719C86.7461 22.3047 87.5957 20.4004 87.5898 18.5078V17.5234H85.5859V16.7617H90.3906V17.5234H88.4805V18.5078C88.4805 20.3066 89.2949 22.1055 90.7305 22.9375L90.168 23.6172C89.1426 23.002 88.416 21.877 88.0527 20.5527C87.6777 21.9883 86.9219 23.2129 85.8789 23.8633L85.293 23.1719ZM89.5938 20.043V19.293H91.3516V15.7891H92.2188V25.4102H91.3516V20.043H89.5938ZM96.168 25L96.1562 24.2266L99.0508 21.1797C100.053 20.1133 100.533 19.5391 100.539 18.7539C100.533 17.8809 99.8066 17.3184 98.8516 17.3125C97.8379 17.3184 97.2051 17.957 97.1992 18.9062H96.2031C96.1914 17.4062 97.3516 16.3984 98.8867 16.3984C100.428 16.3984 101.518 17.4355 101.523 18.7539C101.518 19.7031 101.078 20.4414 99.5781 21.9883L97.6328 23.9922V24.0625H101.676V25H96.168ZM111.379 15.5312V25.9492H110.465V15.5312H111.379ZM102.895 23.1719C103.785 23.166 104.805 23.1602 105.859 23.125V21.9883C104.605 21.8594 103.797 21.1445 103.809 20.1016C103.797 18.9238 104.799 18.1621 106.305 18.168C107.811 18.1621 108.83 18.9238 108.824 20.1016C108.83 21.1328 108.021 21.8477 106.785 21.9883V23.0898C107.793 23.043 108.812 22.9727 109.773 22.8438L109.844 23.5469C107.518 23.9219 104.969 23.957 103.035 23.957L102.895 23.1719ZM103.117 17.5703V16.8203H105.859V15.543H106.785V16.8203H109.504V17.5703H103.117ZM104.664 20.1016C104.658 20.8223 105.338 21.2969 106.305 21.2852C107.277 21.2969 107.951 20.8223 107.945 20.1016C107.951 19.375 107.277 18.8828 106.305 18.8828C105.338 18.8828 104.658 19.375 104.664 20.1016Z" fill="#231FDA"/>
<path d="M33.8965 17.2988C33.4219 15.7959 32.2705 14.8643 30.5918 14.873C28.4473 14.8643 26.8037 16.5518 26.7949 19.6367C26.8037 22.7129 28.4297 24.4092 30.6797 24.4004C32.71 24.4092 34.0547 23.1172 34.0898 21.0781H30.9609V19.4785H35.9707V20.9199C35.9707 24.1455 33.7559 26.1758 30.6621 26.1758C27.2168 26.1758 24.8789 23.6709 24.8789 19.6367C24.8789 15.5762 27.2871 13.0977 30.5742 13.0977C33.3252 13.0977 35.4521 14.8115 35.8828 17.2988H33.8965ZM42.1582 26.1934C39.3457 26.1934 37.6143 24.251 37.623 21.2891C37.6143 18.3535 39.3721 16.332 42.0352 16.332C44.2061 16.332 46.2715 17.6768 46.2715 21.1309V21.7988H39.4863C39.5391 23.6182 40.6113 24.6465 42.1758 24.6465C43.2393 24.6465 43.9336 24.1895 44.25 23.6094H46.1484C45.7266 25.1562 44.2588 26.1934 42.1582 26.1934ZM39.4951 20.3926H44.4258C44.4258 18.9424 43.4854 17.8701 42.0527 17.8789C40.5498 17.8701 39.5742 19.0479 39.4951 20.3926ZM50.0156 20.3398V26H48.1348V16.4551H49.9453V18.0195H50.0508C50.499 16.9912 51.4395 16.332 52.8633 16.332C54.8232 16.332 56.124 17.5713 56.1152 19.9355V26H54.252V20.1641C54.2432 18.7754 53.4961 17.9492 52.2305 17.9492C50.9385 17.9492 50.0156 18.8193 50.0156 20.3398ZM59.6484 26H57.5918L62.1621 13.2734H64.3945L68.9824 26H66.9258L65.7656 22.6426H60.8086L59.6484 26ZM61.3623 21.0254H65.2031L63.3223 15.5938H63.2344L61.3623 21.0254ZM72.5332 13.2734V26H70.5996V13.2734H72.5332ZM25.5898 50V34.4453H27.9531V41.1914H35.6875V34.4453H38.0508V50H35.6875V43.2109H27.9531V50H25.5898ZM40.5 46.7129C40.4893 44.0488 42.7559 43.3613 44.8613 43.2109C45.6348 43.168 47.3857 43.0713 47.9229 43.0498L47.9121 42.1152C47.9229 40.7939 47.1064 40.0312 45.5488 40.0312C44.1953 40.0312 43.3789 40.6543 43.1426 41.5137H40.8652C41.0693 39.5801 42.874 38.1836 45.6348 38.1836C47.4932 38.1836 50.2002 38.8604 50.2109 42.2441V50H47.9766V48.4102H47.8906C47.4395 49.2803 46.3652 50.2578 44.4316 50.2578C42.2188 50.2578 40.4893 48.9902 40.5 46.7129ZM42.7344 46.7344C42.7344 47.8516 43.6582 48.4209 44.9473 48.4316C46.8164 48.4209 47.9336 47.1748 47.9336 45.7891L47.9229 44.7256C47.3965 44.7578 45.7314 44.876 45.1836 44.9082C43.6797 45.0156 42.7344 45.585 42.7344 46.7344ZM57.9238 50.2363C54.5186 50.2363 52.4561 47.7334 52.4668 44.2207C52.4561 40.665 54.5938 38.1836 57.8809 38.1836C60.5449 38.1836 62.4678 39.752 62.7148 42.1152H60.4805C60.2441 41.0195 59.374 40.1064 57.9238 40.0957C56.0332 40.1064 54.7656 41.6748 54.7656 44.1562C54.7656 46.7129 56.001 48.292 57.9238 48.2812C59.2236 48.292 60.1904 47.5615 60.4805 46.3047H62.7148C62.4678 48.5713 60.6738 50.2363 57.9238 50.2363ZM64.8848 50V34.4453H67.1836V43.2539H67.377L71.9961 38.334H74.7461L70.0303 43.3398L75.0684 50H72.2539L68.29 44.7578L67.1836 45.8535V50H64.8848ZM76.0137 46.7129C76.0029 44.0488 78.2695 43.3613 80.375 43.2109C81.1484 43.168 82.8994 43.0713 83.4365 43.0498L83.4258 42.1152C83.4365 40.7939 82.6201 40.0312 81.0625 40.0312C79.709 40.0312 78.8926 40.6543 78.6562 41.5137H76.3789C76.583 39.5801 78.3877 38.1836 81.1484 38.1836C83.0068 38.1836 85.7139 38.8604 85.7246 42.2441V50H83.4902V48.4102H83.4043C82.9531 49.2803 81.8789 50.2578 79.9453 50.2578C77.7324 50.2578 76.0029 48.9902 76.0137 46.7129ZM78.248 46.7344C78.248 47.8516 79.1719 48.4209 80.4609 48.4316C82.3301 48.4209 83.4473 47.1748 83.4473 45.7891L83.4365 44.7256C82.9102 44.7578 81.2451 44.876 80.6973 44.9082C79.1934 45.0156 78.248 45.585 78.248 46.7344ZM93.9531 38.334V40.1602H91.5684V46.5625C91.5791 47.8838 92.2236 48.1201 92.9648 48.1309C93.2979 48.1309 93.8027 48.0986 94.125 48.0664V50.0645C93.8135 50.1074 93.3193 50.1504 92.6855 50.1504C90.8916 50.1504 89.2695 49.1621 89.291 47.0352V40.1602H87.5723V38.334H89.291V35.541H91.5684V38.334H93.9531ZM101 50.2363C97.6914 50.2363 95.5322 47.8301 95.543 44.2207C95.5322 40.5898 97.6914 38.1836 101 38.1836C104.287 38.1836 106.436 40.5898 106.436 44.2207C106.436 47.8301 104.287 50.2363 101 50.2363ZM97.8418 44.2207C97.8418 46.4443 98.8623 48.3242 101 48.3242C103.105 48.3242 104.115 46.4443 104.115 44.2207C104.115 41.9863 103.105 40.085 101 40.0742C98.8623 40.085 97.8418 41.9863 97.8418 44.2207ZM110.99 43.082V50H108.691V38.334H110.904V40.2461H111.033C111.581 38.9893 112.73 38.1836 114.471 38.1836C116.866 38.1836 118.456 39.6982 118.445 42.5879V50H116.168V42.8672C116.157 41.1699 115.244 40.1602 113.697 40.1602C112.118 40.1602 110.99 41.2236 110.99 43.082Z" fill="white"/>
<circle cx="232.5" cy="85.5" r="35.5" fill="url(#paint44_radial_1113_7000)"/>
<rect x="141" y="21" width="96" height="22" rx="11" fill="white"/>
<path d="M156.147 30.7158C155.805 29.6304 154.973 28.9575 153.761 28.9639C152.212 28.9575 151.025 30.1763 151.019 32.4043C151.025 34.626 152.199 35.8511 153.824 35.8447C155.291 35.8511 156.262 34.918 156.287 33.4453H154.027V32.29H157.646V33.3311C157.646 35.6606 156.046 37.127 153.812 37.127C151.323 37.127 149.635 35.3179 149.635 32.4043C149.635 29.4717 151.374 27.6816 153.748 27.6816C155.735 27.6816 157.271 28.9194 157.582 30.7158H156.147ZM162.114 37.1396C160.083 37.1396 158.833 35.7368 158.839 33.5977C158.833 31.4775 160.102 30.0176 162.025 30.0176C163.593 30.0176 165.085 30.9888 165.085 33.4834V33.9658H160.185C160.223 35.2798 160.997 36.0225 162.127 36.0225C162.895 36.0225 163.396 35.6924 163.625 35.2734H164.996C164.691 36.3906 163.631 37.1396 162.114 37.1396ZM160.191 32.9502H163.752C163.752 31.9028 163.073 31.1284 162.038 31.1348C160.953 31.1284 160.248 31.979 160.191 32.9502ZM167.789 32.9121V37H166.431V30.1064H167.738V31.2363H167.814C168.138 30.4937 168.817 30.0176 169.846 30.0176C171.261 30.0176 172.201 30.9126 172.194 32.6201V37H170.849V32.7852C170.842 31.7822 170.303 31.1855 169.389 31.1855C168.456 31.1855 167.789 31.814 167.789 32.9121ZM176.815 37.1396C174.784 37.1396 173.534 35.7368 173.54 33.5977C173.534 31.4775 174.803 30.0176 176.727 30.0176C178.294 30.0176 179.786 30.9888 179.786 33.4834V33.9658H174.886C174.924 35.2798 175.698 36.0225 176.828 36.0225C177.596 36.0225 178.098 35.6924 178.326 35.2734H179.697C179.393 36.3906 178.333 37.1396 176.815 37.1396ZM174.892 32.9502H178.453C178.453 31.9028 177.774 31.1284 176.739 31.1348C175.654 31.1284 174.949 31.979 174.892 32.9502ZM181.132 37V30.1064H182.439V31.1982H182.516C182.77 30.4619 183.461 29.9985 184.268 30.0049C184.433 29.9985 184.699 30.0176 184.839 30.0303V31.3252C184.725 31.2998 184.407 31.2427 184.128 31.249C183.188 31.2427 182.49 31.8965 182.49 32.7979V37H181.132ZM185.461 35.0576C185.455 33.4834 186.794 33.0771 188.038 32.9883C188.495 32.9629 189.53 32.9058 189.847 32.8931L189.841 32.3408C189.847 31.5601 189.365 31.1094 188.444 31.1094C187.645 31.1094 187.162 31.4775 187.022 31.9854H185.677C185.797 30.8428 186.864 30.0176 188.495 30.0176C189.593 30.0176 191.193 30.4175 191.199 32.417V37H189.879V36.0605H189.828C189.562 36.5747 188.927 37.1523 187.784 37.1523C186.477 37.1523 185.455 36.4033 185.461 35.0576ZM186.781 35.0703C186.781 35.7305 187.327 36.0669 188.089 36.0732C189.193 36.0669 189.854 35.3306 189.854 34.5117L189.847 33.8833C189.536 33.9023 188.552 33.9722 188.229 33.9912C187.34 34.0547 186.781 34.3911 186.781 35.0703ZM196.062 30.1064V31.1855H194.652V34.9688C194.659 35.7495 195.04 35.8892 195.478 35.8955C195.674 35.8955 195.973 35.8765 196.163 35.8574V37.0381C195.979 37.0635 195.687 37.0889 195.312 37.0889C194.252 37.0889 193.294 36.5049 193.307 35.248V31.1855H192.291V30.1064H193.307V28.4561H194.652V30.1064H196.062ZM197.382 37V30.1064H198.74V37H197.382ZM197.204 28.2402C197.21 27.7959 197.598 27.4404 198.067 27.4404C198.531 27.4404 198.918 27.7959 198.918 28.2402C198.918 28.6846 198.531 29.0464 198.067 29.04C197.598 29.0464 197.21 28.6846 197.204 28.2402ZM206.307 30.1064L203.806 37H202.346L199.845 30.1064H201.305L203.044 35.4004H203.107L204.847 30.1064H206.307ZM210.141 37.1396C208.109 37.1396 206.859 35.7368 206.865 33.5977C206.859 31.4775 208.128 30.0176 210.052 30.0176C211.62 30.0176 213.111 30.9888 213.111 33.4834V33.9658H208.211C208.249 35.2798 209.023 36.0225 210.153 36.0225C210.921 36.0225 211.423 35.6924 211.651 35.2734H213.022C212.718 36.3906 211.658 37.1396 210.141 37.1396ZM208.217 32.9502H211.778C211.778 31.9028 211.099 31.1284 210.064 31.1348C208.979 31.1284 208.274 31.979 208.217 32.9502ZM218.532 37H217.047L220.348 27.8086H221.96L225.273 37H223.788L222.95 34.5752H219.37L218.532 37ZM219.77 33.4072H222.544L221.186 29.4844H221.122L219.77 33.4072ZM227.838 27.8086V37H226.441V27.8086H227.838Z" fill="black"/>
<rect x="246.5" y="21.5" width="89" height="21" rx="10.5" stroke="white"/>
<path d="M259.439 37V27.8086H260.836V31.7949H265.406V27.8086H266.803V37H265.406V32.9883H260.836V37H259.439ZM268.25 35.0576C268.244 33.4834 269.583 33.0771 270.827 32.9883C271.284 32.9629 272.319 32.9058 272.636 32.8931L272.63 32.3408C272.636 31.5601 272.154 31.1094 271.233 31.1094C270.434 31.1094 269.951 31.4775 269.812 31.9854H268.466C268.586 30.8428 269.653 30.0176 271.284 30.0176C272.382 30.0176 273.982 30.4175 273.988 32.417V37H272.668V36.0605H272.617C272.351 36.5747 271.716 37.1523 270.573 37.1523C269.266 37.1523 268.244 36.4033 268.25 35.0576ZM269.57 35.0703C269.57 35.7305 270.116 36.0669 270.878 36.0732C271.982 36.0669 272.643 35.3306 272.643 34.5117L272.636 33.8833C272.325 33.9023 271.341 33.9722 271.018 33.9912C270.129 34.0547 269.57 34.3911 269.57 35.0703ZM278.546 37.1396C276.534 37.1396 275.315 35.6606 275.321 33.585C275.315 31.4839 276.578 30.0176 278.521 30.0176C280.095 30.0176 281.231 30.9443 281.377 32.3408H280.057C279.917 31.6934 279.403 31.1538 278.546 31.1475C277.429 31.1538 276.68 32.0806 276.68 33.5469C276.68 35.0576 277.41 35.9907 278.546 35.9844C279.314 35.9907 279.885 35.5591 280.057 34.8164H281.377C281.231 36.1558 280.171 37.1396 278.546 37.1396ZM282.659 37V27.8086H284.018V33.0137H284.132L286.861 30.1064H288.486L285.7 33.0645L288.677 37H287.014L284.671 33.9023L284.018 34.5498V37H282.659ZM289.235 35.0576C289.229 33.4834 290.568 33.0771 291.812 32.9883C292.27 32.9629 293.304 32.9058 293.622 32.8931L293.615 32.3408C293.622 31.5601 293.139 31.1094 292.219 31.1094C291.419 31.1094 290.937 31.4775 290.797 31.9854H289.451C289.572 30.8428 290.638 30.0176 292.27 30.0176C293.368 30.0176 294.967 30.4175 294.974 32.417V37H293.653V36.0605H293.603C293.336 36.5747 292.701 37.1523 291.559 37.1523C290.251 37.1523 289.229 36.4033 289.235 35.0576ZM290.556 35.0703C290.556 35.7305 291.102 36.0669 291.863 36.0732C292.968 36.0669 293.628 35.3306 293.628 34.5117L293.622 33.8833C293.311 33.9023 292.327 33.9722 292.003 33.9912C291.114 34.0547 290.556 34.3911 290.556 35.0703ZM299.836 30.1064V31.1855H298.427V34.9688C298.433 35.7495 298.814 35.8892 299.252 35.8955C299.449 35.8955 299.747 35.8765 299.938 35.8574V37.0381C299.753 37.0635 299.461 37.0889 299.087 37.0889C298.027 37.0889 297.068 36.5049 297.081 35.248V31.1855H296.065V30.1064H297.081V28.4561H298.427V30.1064H299.836ZM302.667 32.9121V37H301.309V27.8086H302.642V31.2363H302.73C303.054 30.4873 303.702 30.0176 304.774 30.0176C306.19 30.0176 307.136 30.8936 307.136 32.6201V37H305.777V32.7852C305.777 31.7695 305.231 31.1855 304.317 31.1855C303.359 31.1855 302.667 31.814 302.667 32.9121ZM311.693 37.1396C309.738 37.1396 308.462 35.7178 308.469 33.585C308.462 31.4395 309.738 30.0176 311.693 30.0176C313.636 30.0176 314.905 31.4395 314.905 33.585C314.905 35.7178 313.636 37.1396 311.693 37.1396ZM309.827 33.585C309.827 34.8989 310.43 36.0098 311.693 36.0098C312.938 36.0098 313.534 34.8989 313.534 33.585C313.534 32.2646 312.938 31.1411 311.693 31.1348C310.43 31.1411 309.827 32.2646 309.827 33.585ZM317.597 32.9121V37H316.238V30.1064H317.546V31.2363H317.622C317.946 30.4937 318.625 30.0176 319.653 30.0176C321.069 30.0176 322.008 30.9126 322.002 32.6201V37H320.656V32.7852C320.65 31.7822 320.11 31.1855 319.196 31.1855C318.263 31.1855 317.597 31.814 317.597 32.9121Z" fill="white"/>
<g style="mix-blend-mode:darken" opacity="0.5">
<path d="M211.993 46H360V66H201L211.993 46Z" fill="#1A1A1D"/>
</g>
<path d="M226.301 57.0117V57.7637H222.746V60.8203H221.838V57.7637H218.322V57.0117H226.301ZM218.771 55.6152C220.402 55.3906 221.76 54.4189 221.789 53.3398H219.064V52.5977H225.549V53.3398H222.844C222.858 54.4189 224.206 55.3906 225.861 55.6152L225.52 56.3477C224.084 56.123 222.844 55.415 222.312 54.4189C221.774 55.415 220.539 56.123 219.123 56.3477L218.771 55.6152ZM230.354 56.7285V58.2422C231.154 58.1982 231.965 58.1299 232.727 58.0176L232.795 58.7012C230.817 59.0674 228.693 59.082 227.131 59.082L227.014 58.3203C227.717 58.3154 228.552 58.3105 229.426 58.2812V56.7285H230.354ZM227.248 56.3086C228.552 55.9326 229.367 55.0195 229.416 53.9453H227.482V53.1934H229.426V52.1484H230.354V53.1934H232.316V53.9453H230.354C230.402 54.9756 231.232 55.8594 232.541 56.2109L232.111 56.9336C231.066 56.6357 230.285 56.001 229.89 55.1709C229.509 56.0449 228.737 56.7139 227.688 57.0117L227.248 56.3086ZM233.273 60.8496V52.0801H234.201V60.8496H233.273ZM240.109 52.1973V60.8008H239.182V52.1973H240.109ZM247.092 60V52.9297H249.611C251.257 52.9297 252.062 53.916 252.062 55.2246C252.062 56.5283 251.252 57.5195 249.611 57.5195H248.166V60H247.092ZM248.166 56.6016H249.504C250.544 56.6064 250.979 56.0205 250.979 55.2246C250.979 54.4238 250.544 53.8525 249.504 53.8477H248.166V56.6016ZM253.107 60V54.6973H254.113V55.5371H254.172C254.367 54.9707 254.899 54.6143 255.52 54.6191C255.646 54.6143 255.852 54.6289 255.959 54.6387V55.6348C255.871 55.6152 255.627 55.5713 255.412 55.5762C254.689 55.5713 254.152 56.0742 254.152 56.7676V60H253.107ZM256.74 60V54.6973H257.785V60H256.74ZM256.604 53.2617C256.608 52.9199 256.906 52.6465 257.268 52.6465C257.624 52.6465 257.922 52.9199 257.922 53.2617C257.922 53.6035 257.624 53.8818 257.268 53.877C256.906 53.8818 256.608 53.6035 256.604 53.2617ZM259.055 60V54.6973H260.061V55.5664H260.119C260.344 54.9756 260.866 54.6289 261.564 54.6289C262.272 54.6289 262.766 54.9756 262.99 55.5664H263.049C263.298 54.9951 263.874 54.6289 264.641 54.6289C265.598 54.6289 266.276 55.2295 266.281 56.4453V60H265.236V56.543C265.236 55.8252 264.787 55.5273 264.24 55.5273C263.571 55.5273 263.186 55.9863 263.186 56.6211V60H262.15V56.4844C262.15 55.9033 261.755 55.5273 261.184 55.5273C260.598 55.5273 260.1 56.0156 260.1 56.7285V60H259.055ZM269.826 60.1074C268.264 60.1074 267.302 59.0283 267.307 57.3828C267.302 55.752 268.278 54.6289 269.758 54.6289C270.964 54.6289 272.111 55.376 272.111 57.2949V57.666H268.342C268.371 58.6768 268.967 59.248 269.836 59.248C270.427 59.248 270.812 58.9941 270.988 58.6719H272.043C271.809 59.5312 270.993 60.1074 269.826 60.1074ZM268.347 56.8848H271.086C271.086 56.0791 270.563 55.4834 269.768 55.4883C268.933 55.4834 268.391 56.1377 268.347 56.8848ZM273.146 60V54.6973H274.152V55.5371H274.211C274.406 54.9707 274.938 54.6143 275.559 54.6191C275.686 54.6143 275.891 54.6289 275.998 54.6387V55.6348C275.91 55.6152 275.666 55.5713 275.451 55.5762C274.729 55.5713 274.191 56.0742 274.191 56.7676V60H273.146Z" fill="#E1E1E1"/>
<path d="M291.852 53.0469V53.8086H284.732V53.0469H287.848V52.041H288.766V53.0469H291.852ZM284.322 58.5059V57.7441H292.33V58.5059H288.766V60.8398H287.848V58.5059H284.322ZM285.396 55.7324C285.392 54.7754 286.485 54.2529 288.307 54.2578C290.123 54.2529 291.217 54.7754 291.217 55.7324C291.217 56.665 290.123 57.1924 288.307 57.1973C286.485 57.1924 285.392 56.665 285.396 55.7324ZM286.354 55.7324C286.354 56.2207 287.052 56.499 288.307 56.4941C289.557 56.499 290.255 56.2207 290.26 55.7324C290.255 55.2295 289.557 54.9512 288.307 54.9512C287.052 54.9512 286.354 55.2295 286.354 55.7324ZM300.24 52.0898V58.7207H299.312V57.8809H297.555V57.2266H299.312V52.0898H300.24ZM292.926 56.084C294.542 56.0693 296.725 56.0547 298.59 55.8203L298.648 56.4844C297.901 56.6113 297.115 56.6895 296.344 56.7432V58.4473H295.416V56.792C294.566 56.8262 293.751 56.8262 293.043 56.8262L292.926 56.084ZM293.609 53.9648C293.604 53.0371 294.488 52.4219 295.787 52.4219C297.066 52.4219 297.955 53.0371 297.955 53.9648C297.955 54.8975 297.066 55.4883 295.787 55.4883C294.493 55.4883 293.604 54.8975 293.609 53.9648ZM294.137 60.6445V58.0762H295.055V59.8926H300.455V60.6445H294.137ZM294.488 53.9648C294.483 54.4824 295.011 54.8047 295.787 54.8047C296.534 54.8047 297.071 54.4824 297.076 53.9648C297.071 53.4424 296.534 53.1055 295.787 53.1152C295.011 53.1055 294.483 53.4424 294.488 53.9648ZM308.551 52.1973V60.8008H307.623V52.1973H308.551ZM318.814 57.793V54.6973H319.85V60H318.834V59.082H318.775C318.531 59.6484 317.989 60.0684 317.193 60.0684C316.168 60.0684 315.445 59.3799 315.445 58.0664V54.6973H316.49V57.9395C316.49 58.6621 316.93 59.1211 317.564 59.1211C318.146 59.1211 318.814 58.6963 318.814 57.793ZM321.119 61.9922V54.6973H322.135V55.5566H322.223C322.408 55.2246 322.765 54.6289 323.746 54.6289C325.03 54.6289 325.973 55.6348 325.973 57.3633C325.973 59.0723 325.04 60.1025 323.756 60.1074C322.794 60.1025 322.413 59.5166 322.223 59.1699H322.164V61.9922H321.119ZM322.145 57.3438C322.145 58.457 322.633 59.2139 323.521 59.2188C324.439 59.2139 324.918 58.4082 324.918 57.3438C324.918 56.2988 324.454 55.5127 323.521 55.5176C322.623 55.5127 322.145 56.2402 322.145 57.3438ZM329.986 56.1426C329.889 55.7227 329.557 55.4492 328.98 55.4492C328.385 55.4492 327.96 55.7568 327.965 56.1621C327.96 56.4746 328.209 56.6992 328.795 56.8359L329.635 57.0312C330.611 57.251 331.085 57.7148 331.09 58.4668C331.085 59.4238 330.274 60.1074 328.922 60.1074C327.647 60.1074 326.896 59.541 326.764 58.5547H327.828C327.921 59.0332 328.282 59.2725 328.912 59.2676C329.586 59.2725 330.021 58.9893 330.025 58.5449C330.021 58.2031 329.767 57.9834 329.205 57.8516L328.375 57.6758C327.418 57.4658 326.92 56.9531 326.92 56.2207C326.92 55.2783 327.74 54.6289 328.971 54.6289C330.152 54.6289 330.89 55.2295 330.992 56.1426H329.986ZM334.586 54.6973V55.5273H333.502V58.4375C333.507 59.0381 333.8 59.1455 334.137 59.1504C334.288 59.1504 334.518 59.1357 334.664 59.1211V60.0293C334.522 60.0488 334.298 60.0684 334.01 60.0684C333.194 60.0684 332.457 59.6191 332.467 58.6523V55.5273H331.686V54.6973H332.467V53.4277H333.502V54.6973H334.586ZM335.357 58.5059C335.353 57.2949 336.383 56.9824 337.34 56.9141C337.691 56.8945 338.487 56.8506 338.731 56.8408L338.727 56.416C338.731 55.8154 338.36 55.4688 337.652 55.4688C337.037 55.4688 336.666 55.752 336.559 56.1426H335.523C335.616 55.2637 336.437 54.6289 337.691 54.6289C338.536 54.6289 339.767 54.9365 339.771 56.4746V60H338.756V59.2773H338.717C338.512 59.6729 338.023 60.1172 337.145 60.1172C336.139 60.1172 335.353 59.541 335.357 58.5059ZM336.373 58.5156C336.373 59.0234 336.793 59.2822 337.379 59.2871C338.229 59.2822 338.736 58.7158 338.736 58.0859L338.731 57.6025C338.492 57.6172 337.735 57.6709 337.486 57.6855C336.803 57.7344 336.373 57.9932 336.373 58.5156ZM343.258 62.0996C341.92 62.0996 341.036 61.5088 340.943 60.5176H342.008C342.11 61.0205 342.579 61.2646 343.268 61.2598C344.098 61.2646 344.62 60.9033 344.625 60.0781V59.0332H344.557C344.371 59.375 343.99 59.9219 343.014 59.9219C341.764 59.9219 340.797 58.9893 340.797 57.2949C340.797 55.6006 341.749 54.6289 343.023 54.6289C344.01 54.6289 344.371 55.2246 344.566 55.5566H344.635V54.6973H345.65V60.1172C345.655 61.4795 344.625 62.0996 343.258 62.0996ZM341.861 57.3145C341.856 58.3545 342.335 59.0576 343.248 59.0625C344.137 59.0576 344.635 58.4082 344.635 57.3145C344.635 56.2402 344.146 55.5127 343.248 55.5176C342.325 55.5127 341.856 56.2988 341.861 57.3145ZM349.205 60.1074C347.643 60.1074 346.681 59.0283 346.686 57.3828C346.681 55.752 347.657 54.6289 349.137 54.6289C350.343 54.6289 351.49 55.376 351.49 57.2949V57.666H347.721C347.75 58.6768 348.346 59.248 349.215 59.248C349.806 59.248 350.191 58.9941 350.367 58.6719H351.422C351.188 59.5312 350.372 60.1074 349.205 60.1074ZM347.726 56.8848H350.465C350.465 56.0791 349.942 55.4834 349.146 55.4883C348.312 55.4834 347.77 56.1377 347.726 56.8848Z" fill="#E1E1E1"/>
</g>
<defs>
<linearGradient id="paint0_linear_1113_7000" x1="320.5" y1="-1.64999" x2="301.239" y2="57.2377" gradientUnits="userSpaceOnUse">
<stop stop-color="white"/>
<stop offset="1" stop-color="#FF6863"/>
</linearGradient>
<linearGradient id="paint1_linear_1113_7000" x1="320.5" y1="-1.64999" x2="301.239" y2="57.2377" gradientUnits="userSpaceOnUse">
<stop stop-color="white"/>
<stop offset="1" stop-color="#FF6863"/>
</linearGradient>
<linearGradient id="paint2_linear_1113_7000" x1="320.5" y1="-1.64999" x2="301.239" y2="57.2377" gradientUnits="userSpaceOnUse">
<stop stop-color="white"/>
<stop offset="1" stop-color="#FF6863"/>
</linearGradient>
<linearGradient id="paint3_linear_1113_7000" x1="320.5" y1="-1.64999" x2="301.239" y2="57.2377" gradientUnits="userSpaceOnUse">
<stop stop-color="white"/>
<stop offset="1" stop-color="#FF6863"/>
</linearGradient>
<linearGradient id="paint4_linear_1113_7000" x1="320.5" y1="-1.64999" x2="301.239" y2="57.2377" gradientUnits="userSpaceOnUse">
<stop stop-color="white"/>
<stop offset="1" stop-color="#FF6863"/>
</linearGradient>
<linearGradient id="paint5_linear_1113_7000" x1="320.5" y1="-1.64999" x2="301.239" y2="57.2377" gradientUnits="userSpaceOnUse">
<stop stop-color="white"/>
<stop offset="1" stop-color="#FF6863"/>
</linearGradient>
<linearGradient id="paint6_linear_1113_7000" x1="320.5" y1="-1.64999" x2="301.239" y2="57.2377" gradientUnits="userSpaceOnUse">
<stop stop-color="white"/>
<stop offset="1" stop-color="#FF6863"/>
</linearGradient>
<linearGradient id="paint7_linear_1113_7000" x1="320.5" y1="-1.64999" x2="301.239" y2="57.2377" gradientUnits="userSpaceOnUse">
<stop stop-color="white"/>
<stop offset="1" stop-color="#FF6863"/>
</linearGradient>
<linearGradient id="paint8_linear_1113_7000" x1="320.5" y1="-1.64999" x2="301.239" y2="57.2377" gradientUnits="userSpaceOnUse">
<stop stop-color="white"/>
<stop offset="1" stop-color="#FF6863"/>
</linearGradient>
<linearGradient id="paint9_linear_1113_7000" x1="320.5" y1="-1.64999" x2="301.239" y2="57.2377" gradientUnits="userSpaceOnUse">
<stop stop-color="white"/>
<stop offset="1" stop-color="#FF6863"/>
</linearGradient>
<linearGradient id="paint10_linear_1113_7000" x1="320.5" y1="-1.64999" x2="301.239" y2="57.2377" gradientUnits="userSpaceOnUse">
<stop stop-color="white"/>
<stop offset="1" stop-color="#FF6863"/>
</linearGradient>
<linearGradient id="paint11_linear_1113_7000" x1="320.5" y1="-1.64999" x2="301.239" y2="57.2377" gradientUnits="userSpaceOnUse">
<stop stop-color="white"/>
<stop offset="1" stop-color="#FF6863"/>
</linearGradient>
<linearGradient id="paint12_linear_1113_7000" x1="320.5" y1="-1.64999" x2="301.239" y2="57.2377" gradientUnits="userSpaceOnUse">
<stop stop-color="white"/>
<stop offset="1" stop-color="#FF6863"/>
</linearGradient>
<linearGradient id="paint13_linear_1113_7000" x1="320.5" y1="-1.64999" x2="301.239" y2="57.2377" gradientUnits="userSpaceOnUse">
<stop stop-color="white"/>
<stop offset="1" stop-color="#FF6863"/>
</linearGradient>
<linearGradient id="paint14_linear_1113_7000" x1="320.5" y1="-1.64999" x2="301.239" y2="57.2377" gradientUnits="userSpaceOnUse">
<stop stop-color="white"/>
<stop offset="1" stop-color="#FF6863"/>
</linearGradient>
<linearGradient id="paint15_linear_1113_7000" x1="320.5" y1="-1.64999" x2="301.239" y2="57.2377" gradientUnits="userSpaceOnUse">
<stop stop-color="white"/>
<stop offset="1" stop-color="#FF6863"/>
</linearGradient>
<linearGradient id="paint16_linear_1113_7000" x1="320.5" y1="-1.64999" x2="301.239" y2="57.2377" gradientUnits="userSpaceOnUse">
<stop stop-color="white"/>
<stop offset="1" stop-color="#FF6863"/>
</linearGradient>
<linearGradient id="paint17_linear_1113_7000" x1="320.5" y1="-1.64999" x2="301.239" y2="57.2377" gradientUnits="userSpaceOnUse">
<stop stop-color="white"/>
<stop offset="1" stop-color="#FF6863"/>
</linearGradient>
<linearGradient id="paint18_linear_1113_7000" x1="320.5" y1="-1.64999" x2="301.239" y2="57.2377" gradientUnits="userSpaceOnUse">
<stop stop-color="white"/>
<stop offset="1" stop-color="#FF6863"/>
</linearGradient>
<linearGradient id="paint19_linear_1113_7000" x1="320.5" y1="-1.64999" x2="301.239" y2="57.2377" gradientUnits="userSpaceOnUse">
<stop stop-color="white"/>
<stop offset="1" stop-color="#FF6863"/>
</linearGradient>
<linearGradient id="paint20_linear_1113_7000" x1="320.5" y1="-1.64999" x2="301.239" y2="57.2377" gradientUnits="userSpaceOnUse">
<stop stop-color="white"/>
<stop offset="1" stop-color="#FF6863"/>
</linearGradient>
<linearGradient id="paint21_linear_1113_7000" x1="320.5" y1="-1.64999" x2="301.239" y2="57.2377" gradientUnits="userSpaceOnUse">
<stop stop-color="white"/>
<stop offset="1" stop-color="#FF6863"/>
</linearGradient>
<linearGradient id="paint22_linear_1113_7000" x1="320.5" y1="-1.64999" x2="301.239" y2="57.2377" gradientUnits="userSpaceOnUse">
<stop stop-color="white"/>
<stop offset="1" stop-color="#FF6863"/>
</linearGradient>
<linearGradient id="paint23_linear_1113_7000" x1="320.5" y1="-1.64999" x2="301.239" y2="57.2377" gradientUnits="userSpaceOnUse">
<stop stop-color="white"/>
<stop offset="1" stop-color="#FF6863"/>
</linearGradient>
<linearGradient id="paint24_linear_1113_7000" x1="320.5" y1="-1.64999" x2="301.239" y2="57.2377" gradientUnits="userSpaceOnUse">
<stop stop-color="white"/>
<stop offset="1" stop-color="#FF6863"/>
</linearGradient>
<linearGradient id="paint25_linear_1113_7000" x1="320.5" y1="-1.64999" x2="301.239" y2="57.2377" gradientUnits="userSpaceOnUse">
<stop stop-color="white"/>
<stop offset="1" stop-color="#FF6863"/>
</linearGradient>
<linearGradient id="paint26_linear_1113_7000" x1="320.5" y1="-1.64999" x2="301.239" y2="57.2377" gradientUnits="userSpaceOnUse">
<stop stop-color="white"/>
<stop offset="1" stop-color="#FF6863"/>
</linearGradient>
<linearGradient id="paint27_linear_1113_7000" x1="320.5" y1="-1.64999" x2="301.239" y2="57.2377" gradientUnits="userSpaceOnUse">
<stop stop-color="white"/>
<stop offset="1" stop-color="#FF6863"/>
</linearGradient>
<linearGradient id="paint28_linear_1113_7000" x1="320.5" y1="-1.64999" x2="301.239" y2="57.2377" gradientUnits="userSpaceOnUse">
<stop stop-color="white"/>
<stop offset="1" stop-color="#FF6863"/>
</linearGradient>
<linearGradient id="paint29_linear_1113_7000" x1="320.5" y1="-1.64999" x2="301.239" y2="57.2377" gradientUnits="userSpaceOnUse">
<stop stop-color="white"/>
<stop offset="1" stop-color="#FF6863"/>
</linearGradient>
<linearGradient id="paint30_linear_1113_7000" x1="320.5" y1="-1.64999" x2="301.239" y2="57.2377" gradientUnits="userSpaceOnUse">
<stop stop-color="white"/>
<stop offset="1" stop-color="#FF6863"/>
</linearGradient>
<linearGradient id="paint31_linear_1113_7000" x1="320.5" y1="-1.64999" x2="301.239" y2="57.2377" gradientUnits="userSpaceOnUse">
<stop stop-color="white"/>
<stop offset="1" stop-color="#FF6863"/>
</linearGradient>
<linearGradient id="paint32_linear_1113_7000" x1="320.5" y1="-1.64999" x2="301.239" y2="57.2377" gradientUnits="userSpaceOnUse">
<stop stop-color="white"/>
<stop offset="1" stop-color="#FF6863"/>
</linearGradient>
<linearGradient id="paint33_linear_1113_7000" x1="320.5" y1="-1.64999" x2="301.239" y2="57.2377" gradientUnits="userSpaceOnUse">
<stop stop-color="white"/>
<stop offset="1" stop-color="#FF6863"/>
</linearGradient>
<linearGradient id="paint34_linear_1113_7000" x1="320.5" y1="-1.64999" x2="301.239" y2="57.2377" gradientUnits="userSpaceOnUse">
<stop stop-color="white"/>
<stop offset="1" stop-color="#FF6863"/>
</linearGradient>
<linearGradient id="paint35_linear_1113_7000" x1="320.5" y1="-1.64999" x2="301.239" y2="57.2377" gradientUnits="userSpaceOnUse">
<stop stop-color="white"/>
<stop offset="1" stop-color="#FF6863"/>
</linearGradient>
<linearGradient id="paint36_linear_1113_7000" x1="320.5" y1="-1.64999" x2="301.239" y2="57.2377" gradientUnits="userSpaceOnUse">
<stop stop-color="white"/>
<stop offset="1" stop-color="#FF6863"/>
</linearGradient>
<linearGradient id="paint37_linear_1113_7000" x1="320.5" y1="-1.64999" x2="301.239" y2="57.2377" gradientUnits="userSpaceOnUse">
<stop stop-color="white"/>
<stop offset="1" stop-color="#FF6863"/>
</linearGradient>
<linearGradient id="paint38_linear_1113_7000" x1="320.5" y1="-1.64999" x2="301.239" y2="57.2377" gradientUnits="userSpaceOnUse">
<stop stop-color="white"/>
<stop offset="1" stop-color="#FF6863"/>
</linearGradient>
<linearGradient id="paint39_linear_1113_7000" x1="320.5" y1="-1.64999" x2="301.239" y2="57.2377" gradientUnits="userSpaceOnUse">
<stop stop-color="white"/>
<stop offset="1" stop-color="#FF6863"/>
</linearGradient>
<linearGradient id="paint40_linear_1113_7000" x1="320.5" y1="-1.64999" x2="301.239" y2="57.2377" gradientUnits="userSpaceOnUse">
<stop stop-color="white"/>
<stop offset="1" stop-color="#FF6863"/>
</linearGradient>
<linearGradient id="paint41_linear_1113_7000" x1="320.5" y1="-1.64999" x2="301.239" y2="57.2377" gradientUnits="userSpaceOnUse">
<stop stop-color="white"/>
<stop offset="1" stop-color="#FF6863"/>
</linearGradient>
<linearGradient id="paint42_linear_1113_7000" x1="320.5" y1="-1.64999" x2="301.239" y2="57.2377" gradientUnits="userSpaceOnUse">
<stop stop-color="white"/>
<stop offset="1" stop-color="#FF6863"/>
</linearGradient>
<radialGradient id="paint43_radial_1113_7000" cx="0" cy="0" r="1" gradientUnits="userSpaceOnUse" gradientTransform="translate(57 7) rotate(90) scale(55 177.685)">
<stop stop-color="#8CBEFF"/>
<stop offset="1" stop-color="#231FDA" stop-opacity="0"/>
</radialGradient>
<radialGradient id="paint44_radial_1113_7000" cx="0" cy="0" r="1" gradientUnits="userSpaceOnUse" gradientTransform="translate(232.5 85.5) rotate(90) scale(35.5 82.4077)">
<stop stop-color="#231FDA" stop-opacity="0.34"/>
<stop offset="1" stop-color="#427DEA" stop-opacity="0.86"/>
</radialGradient>
<clipPath id="clip0_1113_7000">
<rect width="360" height="66" fill="white"/>
</clipPath>
</defs>
</svg>
