<svg width="21" height="25" viewBox="0 0 21 25" fill="none" xmlns="http://www.w3.org/2000/svg">
<path d="M1.3576 24.4074L1.35739 24.4076C1.27446 24.4626 1.17764 24.4944 1.07729 24.4993C0.976932 24.5042 0.877311 24.482 0.789146 24.4352C0.701018 24.3885 0.627897 24.3192 0.577174 24.2352C0.526473 24.1512 0.49992 24.0555 0.5 23.9582V23.9578V4.1884C0.499998 3.21886 0.887794 2.28808 1.57963 1.60056C2.27158 0.912918 3.2112 0.524886 4.19251 0.522918C4.19254 0.522918 4.19256 0.522918 4.19259 0.522918L16.7925 0.500008L16.7926 0.500007C17.2791 0.499041 17.7608 0.593119 18.2104 0.776768C18.66 0.960415 19.0684 1.22998 19.4125 1.56987C19.7566 1.90975 20.0296 2.3133 20.2161 2.75735C20.4025 3.20112 20.4989 3.6768 20.5 4.15727C20.5 4.15757 20.5 4.15787 20.5 4.15817L20.5 23.9557V23.9561C20.5001 24.0534 20.4735 24.1491 20.4228 24.2331C20.3721 24.3171 20.299 24.3864 20.2108 24.4332C20.1227 24.4799 20.0231 24.5022 19.9227 24.4973C19.8224 24.4923 19.7255 24.4605 19.6426 24.4055L19.6423 24.4053L10.7761 18.532L10.5 18.349L10.2238 18.532L1.3576 24.4074Z" fill="#E6E2DB" stroke="#373430"/>
</svg>
