<svg width="36" height="36" viewBox="0 0 36 36" fill="none" xmlns="http://www.w3.org/2000/svg">
<circle cx="18" cy="18" r="17.5" fill="#E6E2DB" stroke="#373430"/>
<path d="M13 25.0202V10.9779C13.0003 10.8022 13.0446 10.6298 13.1282 10.4788C13.2119 10.3278 13.3318 10.2037 13.4755 10.1196C13.6191 10.0355 13.7812 9.99438 13.9448 10.0006C14.1083 10.0069 14.2673 10.0602 14.4051 10.1551L24.5798 17.1743C24.7087 17.2629 24.8147 17.3849 24.8881 17.529C24.9615 17.6731 25 17.8348 25 17.999C25 18.1633 24.9615 18.3249 24.8881 18.469C24.8147 18.6132 24.7087 18.7351 24.5798 18.8238L14.4051 25.8449C14.2673 25.9398 14.1083 25.9931 13.9448 25.9994C13.7812 26.0056 13.6191 25.9645 13.4755 25.8804C13.3318 25.7963 13.2119 25.6722 13.1282 25.5212C13.0446 25.3702 13.0003 25.1978 13 25.0221V25.0202Z" fill="#373430"/>
</svg>
