<svg width="24" height="24" viewBox="0 0 24 24" fill="none" xmlns="http://www.w3.org/2000/svg">
<path d="M19 8.70543L13.667 4.56125C13.199 4.19749 12.623 4 12.03 4C11.437 4 10.861 4.19749 10.393 4.56125L5.059 8.70543C4.73872 8.95473 4.47957 9.27373 4.30126 9.63816C4.12295 10.0026 4.03018 10.4028 4.03 10.8085V18.0018C4.03 18.5318 4.24071 19.04 4.61579 19.4148C4.99086 19.7895 5.49957 20 6.03 20H18.03C18.5604 20 19.0691 19.7895 19.4442 19.4148C19.8193 19.04 20.03 18.5318 20.03 18.0018V10.8085C20.03 9.98624 19.65 9.20996 19 8.70543Z" stroke="#6D675F" stroke-width="1.2" stroke-linecap="round" stroke-linejoin="round"/>
<path d="M12 12V16.8" stroke="#6D675F" stroke-width="1.2" stroke-linecap="round"/>
</svg>
