<svg width="65" height="64" viewBox="0 0 65 64" fill="none" xmlns="http://www.w3.org/2000/svg">
<rect x="0.5" width="64" height="64" rx="32" fill="#373430"/>
<mask id="mask0_177_9749" style="mask-type:alpha" maskUnits="userSpaceOnUse" x="9" y="22" width="45" height="20">
<rect x="9.96939" y="22.8572" width="43.4286" height="18.6122" fill="#D9D9D9"/>
</mask>
<g mask="url(#mask0_177_9749)">
<path d="M36.5329 26.7398C35.5274 24.9983 33.0138 24.9983 32.0083 26.7398L26.2113 36.7807C25.2058 38.5221 26.4626 40.699 28.4735 40.699L38.4284 40.699C38.4292 40.699 38.43 40.699 38.4309 40.699H50.025C52.0359 40.699 53.2927 38.5221 52.2873 36.7807L46.4902 26.7398C45.4847 24.9983 42.9711 24.9983 41.9657 26.7398L40.3804 29.4856C39.8777 30.3563 38.6209 30.3563 38.1181 29.4856L36.5329 26.7398Z" fill="white"/>
<path d="M21.5378 37.5511C20.5323 39.2926 18.0187 39.2926 17.0132 37.5511L11.2161 27.5103C10.2107 25.7688 11.4675 23.5919 13.4784 23.5919L25.0726 23.5919C27.0835 23.5919 28.3403 25.7688 27.3348 27.5103L21.5378 37.5511Z" fill="white"/>
</g>
</svg>
