<svg width="24" height="24" viewBox="0 0 24 24" fill="none" xmlns="http://www.w3.org/2000/svg">
<circle cx="12" cy="12" r="11.2" stroke="#373430" stroke-width="1.6"/>
<path d="M6.54204 10.3787C6.57938 10.1953 6.66496 9.96859 6.82755 9.79932C6.96758 9.65317 7.21496 9.49136 7.72218 9.49136C8.22239 9.49136 8.47678 9.6569 8.62303 9.81125C8.79262 9.99021 8.87431 10.2176 8.90153 10.3645C8.94091 10.5556 9.05673 10.7244 9.22422 10.8347C9.39171 10.945 9.59758 10.9881 9.79779 10.9547C9.99801 10.9214 10.1767 10.8143 10.2956 10.6564C10.4145 10.4984 10.4642 10.3022 10.4341 10.1095C10.3447 9.62468 10.1157 9.17345 9.77282 8.80682C9.32784 8.33705 8.65337 8 7.72295 8C6.80187 8 6.13051 8.32139 5.68164 8.79042C5.25533 9.23484 5.08341 9.75458 5.01417 10.0954C4.97497 10.2896 5.01786 10.4907 5.13341 10.6546C5.24895 10.8185 5.42769 10.9317 5.6303 10.9693C5.83291 11.0069 6.04279 10.9658 6.21378 10.855C6.38476 10.7442 6.50284 10.5729 6.54204 10.3787ZM15.0994 10.3787C15.1367 10.1953 15.2223 9.96859 15.3849 9.79932C15.5249 9.65317 15.7723 9.49136 16.2803 9.49136C16.7797 9.49136 17.0341 9.6569 17.1804 9.81125C17.3507 9.99021 17.4324 10.2176 17.4589 10.3645C17.4982 10.5556 17.6141 10.7244 17.7815 10.8347C17.949 10.945 18.1549 10.9881 18.3551 10.9547C18.5553 10.9214 18.734 10.8143 18.8529 10.6564C18.9718 10.4984 19.0215 10.3022 18.9914 10.1095C18.902 9.62468 18.673 9.17345 18.3302 8.80682C17.8852 8.33705 17.2107 8 16.2803 8C15.3592 8 14.6878 8.32139 14.239 8.79042C13.8127 9.23484 13.6407 9.75458 13.5723 10.0954C13.5502 10.1925 13.5485 10.2929 13.5675 10.3906C13.5864 10.4883 13.6256 10.5814 13.6826 10.6645C13.7397 10.7475 13.8135 10.8187 13.8996 10.874C13.9858 10.9293 14.0827 10.9675 14.1845 10.9864C14.2863 11.0053 14.391 11.0045 14.4925 10.984C14.594 10.9636 14.6902 10.9238 14.7754 10.8672C14.8607 10.8106 14.9332 10.7382 14.9889 10.6543C15.0445 10.5704 15.0821 10.4767 15.0994 10.3787Z" fill="#373430"/>
<path d="M12 20C8.29671 20 6.87914 17.7143 6.33652 15.9644C6.00937 14.9094 6.89543 14 8 14H16C17.1046 14 17.9906 14.9094 17.6635 15.9644C17.1209 17.7143 15.7033 20 12 20Z" fill="#373430"/>
</svg>
