<svg width="56" height="56" viewBox="0 0 56 56" fill="none" xmlns="http://www.w3.org/2000/svg">
<g filter="url(#filter0_d_1219_10552)">
<circle cx="28" cy="28" r="22" fill="#E6E2DB"/>
</g>
<mask id="mask0_1219_10552" style="mask-type:alpha" maskUnits="userSpaceOnUse" x="16" y="23" width="24" height="11">
<rect x="16" y="23" width="24" height="10.2857" fill="#D9D9D9"/>
</mask>
<g mask="url(#mask0_1219_10552)">
<path d="M30.6809 25.1476C30.1252 24.1852 28.7361 24.1852 28.1805 25.1476L24.9768 30.6965C24.4212 31.6589 25.1157 32.8619 26.227 32.8619L31.7284 32.8619C31.7288 32.8619 31.7293 32.8619 31.7297 32.8619H38.137C39.2483 32.8619 39.9429 31.6589 39.3872 30.6965L36.1836 25.1476C35.6279 24.1852 34.2388 24.1852 33.6832 25.1476L32.8071 26.665C32.5293 27.1462 31.8347 27.1462 31.5569 26.665L30.6809 25.1476Z" fill="#373430"/>
<path d="M22.3918 31.1219C21.8362 32.0844 20.4471 32.0844 19.8914 31.1219L16.6878 25.5731C16.1321 24.6107 16.8267 23.4077 17.938 23.4077L24.3453 23.4077C25.4565 23.4077 26.1511 24.6107 25.5955 25.5731L22.3918 31.1219Z" fill="#373430"/>
</g>
<defs>
<filter id="filter0_d_1219_10552" x="0" y="0" width="56" height="56" filterUnits="userSpaceOnUse" color-interpolation-filters="sRGB">
<feFlood flood-opacity="0" result="BackgroundImageFix"/>
<feColorMatrix in="SourceAlpha" type="matrix" values="0 0 0 0 0 0 0 0 0 0 0 0 0 0 0 0 0 0 127 0" result="hardAlpha"/>
<feOffset/>
<feGaussianBlur stdDeviation="3"/>
<feComposite in2="hardAlpha" operator="out"/>
<feColorMatrix type="matrix" values="0 0 0 0 0 0 0 0 0 0 0 0 0 0 0 0 0 0 0.1 0"/>
<feBlend mode="normal" in2="BackgroundImageFix" result="effect1_dropShadow_1219_10552"/>
<feBlend mode="normal" in="SourceGraphic" in2="effect1_dropShadow_1219_10552" result="shape"/>
</filter>
</defs>
</svg>
