<svg width="24" height="24" viewBox="0 0 24 24" fill="none" xmlns="http://www.w3.org/2000/svg">
<circle cx="12" cy="12" r="11.2" stroke="#373430" stroke-width="1.6"/>
<path opacity="0.5" d="M6 14C6.53043 14 7.03914 13.8946 7.41421 13.7071C7.78929 13.5196 8 13.2652 8 13C8 12.7348 7.78929 12.4804 7.41421 12.2929C7.03914 12.1054 6.53043 12 6 12C5.46957 12 4.96086 12.1054 4.58579 12.2929C4.21071 12.4804 4 12.7348 4 13C4 13.2652 4.21071 13.5196 4.58579 13.7071C4.96086 13.8946 5.46957 14 6 14Z" fill="#373430"/>
<path opacity="0.5" d="M18 14C18.5304 14 19.0391 13.8946 19.4142 13.7071C19.7893 13.5196 20 13.2652 20 13C20 12.7348 19.7893 12.4804 19.4142 12.2929C19.0391 12.1054 18.5304 12 18 12C17.4696 12 16.9609 12.1054 16.5858 12.2929C16.2107 12.4804 16 12.7348 16 13C16 13.2652 16.2107 13.5196 16.5858 13.7071C16.9609 13.8946 17.4696 14 18 14Z" fill="#373430"/>
<path d="M9.79778 9.014C9.87058 9.20085 9.90516 9.40041 9.89949 9.60086C9.88845 9.99115 9.72565 10.3617 9.44569 10.6339C9.16573 10.906 8.79068 11.0583 8.40024 11.0583C8.0098 11.0583 7.63475 10.906 7.35479 10.6339C7.07483 10.3617 6.91203 9.99115 6.90099 9.60086C6.89532 9.40041 6.9299 9.20085 7.0027 9.014C7.07549 8.82714 7.18502 8.65678 7.32479 8.51299C7.46457 8.36921 7.63177 8.25491 7.81649 8.17686C8.00121 8.09881 8.19971 8.05859 8.40024 8.05859C8.60077 8.05859 8.79927 8.09881 8.98399 8.17686C9.16871 8.25491 9.33591 8.36921 9.47569 8.51299C9.61547 8.65678 9.72499 8.82714 9.79778 9.014Z" fill="#373430"/>
<path d="M16.9971 9.014C17.0699 9.20085 17.1044 9.40041 17.0988 9.60086C17.0877 9.99115 16.9249 10.3617 16.645 10.6339C16.365 10.906 15.99 11.0583 15.5995 11.0583C15.2091 11.0583 14.834 10.906 14.5541 10.6339C14.2741 10.3617 14.1113 9.99115 14.1003 9.60086C14.0946 9.40041 14.1292 9.20085 14.202 9.014C14.2748 8.82714 14.3843 8.65678 14.5241 8.51299C14.6639 8.36921 14.831 8.25491 15.0158 8.17686C15.2005 8.09881 15.399 8.05859 15.5995 8.05859C15.8001 8.05859 15.9986 8.09881 16.1833 8.17686C16.368 8.25491 16.5352 8.36921 16.675 8.51299C16.8147 8.65678 16.9243 8.82714 16.9971 9.014Z" fill="#373430"/>
<path d="M9.08481 15.6315C9.31458 15.573 9.5582 15.6074 9.7627 15.7274C10.3434 16.0754 11.1474 16.2746 11.9993 16.2746C12.8512 16.2746 13.6563 16.0754 14.2359 15.7274C14.3372 15.6652 14.4499 15.6237 14.5674 15.6053C14.6849 15.5869 14.8049 15.592 14.9204 15.6202C15.0359 15.6485 15.1447 15.6993 15.2404 15.7699C15.3362 15.8404 15.417 15.9293 15.4782 16.0312C15.5394 16.1332 15.5798 16.2463 15.597 16.3639C15.6143 16.4816 15.608 16.6015 15.5786 16.7168C15.5493 16.832 15.4973 16.9403 15.4258 17.0353C15.3543 17.1304 15.2647 17.2103 15.1622 17.2705C14.2431 17.8224 13.0984 18.0744 11.9993 18.0744C10.9002 18.0744 9.75671 17.8224 8.8364 17.2705C8.63431 17.1464 8.48934 16.9476 8.43302 16.7173C8.3767 16.4869 8.41357 16.2437 8.53562 16.0404C8.65767 15.8371 8.85503 15.6901 9.08481 15.6315Z" fill="#373430"/>
</svg>
