<svg width="24" height="24" viewBox="0 0 24 24" fill="none" xmlns="http://www.w3.org/2000/svg">
<circle cx="12" cy="12" r="11.2" stroke="#373430" stroke-width="1.6"/>
<path d="M9 15C9 15 10.2 16 12 16C13.8 16 15 15 15 15" fill="#373430"/>
<path d="M9 15C9 15 10.2 16 12 16C13.8 16 15 15 15 15" stroke="#373430" stroke-width="1.6" stroke-linecap="round" stroke-linejoin="round"/>
<path d="M6.54204 9.62129C6.57938 9.80473 6.66496 10.0314 6.82755 10.2007C6.96758 10.3468 7.21496 10.5086 7.72218 10.5086C8.22239 10.5086 8.47678 10.3431 8.62303 10.1887C8.79262 10.0098 8.87431 9.78236 8.90153 9.63546C8.94091 9.44437 9.05673 9.27563 9.22422 9.16533C9.39171 9.05504 9.59758 9.01194 9.79779 9.04526C9.99801 9.07857 10.1767 9.18566 10.2956 9.34361C10.4145 9.50157 10.4642 9.69785 10.4341 9.89048C10.3447 10.3753 10.1157 10.8266 9.77282 11.1932C9.32784 11.663 8.65337 12 7.72295 12C6.80187 12 6.13051 11.6786 5.68164 11.2096C5.25533 10.7652 5.08341 10.2454 5.01417 9.90465C4.97497 9.71044 5.01786 9.50926 5.13341 9.34537C5.24895 9.18147 5.42769 9.06829 5.6303 9.03071C5.83291 8.99314 6.04279 9.03425 6.21378 9.145C6.38476 9.25576 6.50284 9.42708 6.54204 9.62129ZM15.0994 9.62129C15.1367 9.80473 15.2223 10.0314 15.3849 10.2007C15.5249 10.3468 15.7723 10.5086 16.2803 10.5086C16.7797 10.5086 17.0341 10.3431 17.1804 10.1887C17.3507 10.0098 17.4324 9.78236 17.4589 9.63546C17.4982 9.44437 17.6141 9.27563 17.7815 9.16533C17.949 9.05504 18.1549 9.01194 18.3551 9.04526C18.5553 9.07857 18.734 9.18566 18.8529 9.34361C18.9718 9.50157 19.0215 9.69785 18.9914 9.89048C18.902 10.3753 18.673 10.8266 18.3302 11.1932C17.8852 11.663 17.2107 12 16.2803 12C15.3592 12 14.6878 11.6786 14.239 11.2096C13.8127 10.7652 13.6407 10.2454 13.5723 9.90465C13.5502 9.80752 13.5485 9.70715 13.5675 9.60942C13.5864 9.51168 13.6256 9.41857 13.6826 9.33555C13.7397 9.25253 13.8135 9.18128 13.8996 9.12599C13.9858 9.0707 14.0827 9.03248 14.1845 9.01359C14.2863 8.9947 14.391 8.99551 14.4925 9.01598C14.594 9.03645 14.6902 9.07616 14.7754 9.13278C14.8607 9.1894 14.9332 9.26178 14.9889 9.34567C15.0445 9.42957 15.0821 9.52328 15.0994 9.62129Z" fill="#373430"/>
</svg>
