<svg width="24" height="24" viewBox="0 0 24 24" fill="none" xmlns="http://www.w3.org/2000/svg">
<circle cx="12" cy="12" r="11.2" stroke="#373430" stroke-width="1.6"/>
<path d="M8.89739 10.9554C8.97019 11.1423 9.00477 11.3418 8.9991 11.5423C8.98806 11.9326 8.82526 12.3031 8.5453 12.5753C8.26534 12.8474 7.89029 12.9997 7.49985 12.9997C7.10941 12.9997 6.73436 12.8474 6.4544 12.5753C6.17444 12.3031 6.01164 11.9326 6.0006 11.5423C5.99493 11.3418 6.02951 11.1423 6.10231 10.9554C6.1751 10.7686 6.28462 10.5982 6.4244 10.4544C6.56418 10.3106 6.73138 10.1963 6.9161 10.1183C7.10082 10.0402 7.29932 10 7.49985 10C7.70038 10 7.89888 10.0402 8.0836 10.1183C8.26832 10.1963 8.43552 10.3106 8.5753 10.4544C8.71508 10.5982 8.8246 10.7686 8.89739 10.9554Z" fill="#373430"/>
<path d="M17.8974 10.9554C17.9702 11.1423 18.0048 11.3418 17.9991 11.5423C17.9881 11.9326 17.8253 12.3031 17.5453 12.5753C17.2653 12.8474 16.8903 12.9997 16.4998 12.9997C16.1094 12.9997 15.7344 12.8474 15.4544 12.5753C15.1744 12.3031 15.0116 11.9326 15.0006 11.5423C14.9949 11.3418 15.0295 11.1423 15.1023 10.9554C15.1751 10.7686 15.2846 10.5982 15.4244 10.4544C15.5642 10.3106 15.7314 10.1963 15.9161 10.1183C16.1008 10.0402 16.2993 10 16.4998 10C16.7004 10 16.8989 10.0402 17.0836 10.1183C17.2683 10.1963 17.4355 10.3106 17.5753 10.4544C17.7151 10.5982 17.8246 10.7686 17.8974 10.9554Z" fill="#373430"/>
<path d="M9 19C9 19 10.2 17 12 17C13.8 17 15 19 15 19" stroke="#373430" stroke-width="1.6" stroke-linecap="round" stroke-linejoin="round"/>
<path d="M5.77762 14.246L7.30842 13.7554L7.62866 15.3015C7.67345 15.5012 7.67846 15.7133 7.64339 15.9249C7.60831 16.1365 7.53389 16.3432 7.42464 16.5325C7.31539 16.7217 7.17359 16.8895 7.00787 17.0257C6.84215 17.1618 6.65597 17.2635 6.46065 17.3246C5.63845 17.5883 4.80999 17.1225 4.61827 16.2741C4.57368 16.0747 4.56853 15.863 4.60313 15.6517C4.63773 15.4404 4.71138 15.2339 4.81964 15.0445C4.92791 14.8551 5.06857 14.6867 5.23319 14.5495C5.3978 14.4123 5.58298 14.3091 5.77762 14.246Z" stroke="#373430" stroke-linecap="round" stroke-linejoin="round"/>
<path d="M18.8205 14.246L17.2897 13.7554L16.9694 15.3015C16.9246 15.5012 16.9196 15.7133 16.9547 15.9249C16.9898 16.1365 17.0642 16.3432 17.1734 16.5325C17.2827 16.7217 17.4245 16.8895 17.5902 17.0257C17.7559 17.1618 17.9421 17.2635 18.1374 17.3246C18.9596 17.5883 19.7881 17.1225 19.9798 16.2741C20.0244 16.0747 20.0295 15.863 19.9949 15.6517C19.9603 15.4404 19.8867 15.2339 19.7784 15.0445C19.6702 14.8551 19.5295 14.6867 19.3649 14.5495C19.2003 14.4123 19.0151 14.3091 18.8205 14.246Z" stroke="#373430" stroke-linecap="round" stroke-linejoin="round"/>
</svg>
