<svg width="24" height="25" viewBox="0 0 24 25" fill="none" xmlns="http://www.w3.org/2000/svg">
<path d="M12 5.99402C10.1683 4.38532 7.79372 3.49699 5.33333 3.50001C4.66258 3.50001 4.0072 3.5645 3.37348 3.68774C2.53705 3.85039 2 4.62853 2 5.48062V16.7568C2 18.1309 3.37283 19.1005 4.74473 19.0225C4.94052 19.0113 5.13681 19.0058 5.33333 19.006C7.89444 19.006 10.2311 19.9494 12 21.5M12 5.99402C13.8317 4.38532 16.2063 3.49699 18.6667 3.50001C19.3374 3.50001 19.9928 3.5645 20.6265 3.68774C21.463 3.85039 22 4.62853 22 5.48062V16.7568C22 18.1309 20.6272 19.1005 19.2553 19.0225C19.0595 19.0113 18.8632 19.0058 18.6667 19.006C16.2063 19.003 13.8317 19.8913 12 21.5M12 5.99402V21.5" stroke="#6D675F" stroke-width="1.2" stroke-linecap="round" stroke-linejoin="round"/>
</svg>
