<svg width="120" height="120" viewBox="0 0 120 120" fill="none" xmlns="http://www.w3.org/2000/svg">
<rect width="120" height="120" rx="36" fill="#373430"/>
<mask id="mask0_177_9543" style="mask-type:alpha" maskUnits="userSpaceOnUse" x="17" y="42" width="83" height="36">
<rect x="17.7551" y="42.8571" width="81.4286" height="34.898" fill="#D9D9D9"/>
</mask>
<g mask="url(#mask0_177_9543)">
<path d="M67.5617 50.1371C65.6765 46.8718 60.9634 46.8718 59.0782 50.1371L48.2087 68.9637C46.3234 72.229 48.68 76.3106 52.4504 76.3106L71.1158 76.3106C71.1174 76.3106 71.1189 76.3106 71.1204 76.3106H92.8594C96.6299 76.3106 98.9864 72.229 97.1012 68.9636L86.2317 50.1371C84.3465 46.8718 79.6334 46.8718 77.7482 50.1371L74.7758 55.2854C73.8332 56.918 71.4767 56.918 70.5341 55.2854L67.5617 50.1371Z" fill="white"/>
<path d="M39.4458 70.4082C37.5606 73.6735 32.8476 73.6735 30.9623 70.4082L20.0928 51.5816C18.2076 48.3163 20.5641 44.2347 24.3346 44.2347L46.0736 44.2347C49.844 44.2347 52.2006 48.3163 50.3153 51.5817L39.4458 70.4082Z" fill="white"/>
</g>
</svg>
