<svg width="26" height="26" viewBox="0 0 26 26" fill="none" xmlns="http://www.w3.org/2000/svg">
<mask id="mask0_1219_10542" style="mask-type:alpha" maskUnits="userSpaceOnUse" x="1" y="1" width="24" height="25">
<rect x="1" y="1.5" width="24" height="24" fill="#D9D9D9"/>
</mask>
<g mask="url(#mask0_1219_10542)">
<path d="M11.6213 16.673L16.0423 13.848C16.1666 13.7608 16.2288 13.6448 16.2288 13.5C16.2288 13.3552 16.1666 13.2392 16.0423 13.152L11.6213 10.327C11.4801 10.236 11.3412 10.2277 11.2048 10.302C11.0683 10.3763 11 10.4942 11 10.6557V16.3442C11 16.5057 11.0683 16.6237 11.2048 16.698C11.3412 16.7723 11.4801 16.764 11.6213 16.673ZM5.6155 20.5C5.15517 20.5 4.77083 20.3458 4.4625 20.0375C4.15417 19.7292 4 19.3448 4 18.8845V8.1155C4 7.65517 4.15417 7.27083 4.4625 6.9625C4.77083 6.65417 5.15517 6.5 5.6155 6.5H20.3845C20.8448 6.5 21.2292 6.65417 21.5375 6.9625C21.8458 7.27083 22 7.65517 22 8.1155V18.8845C22 19.3448 21.8458 19.7292 21.5375 20.0375C21.2292 20.3458 20.8448 20.5 20.3845 20.5H5.6155ZM5.6155 19.5H20.3845C20.5385 19.5 20.6796 19.4359 20.8078 19.3077C20.9359 19.1796 21 19.0385 21 18.8845V8.1155C21 7.9615 20.9359 7.82042 20.8078 7.69225C20.6796 7.56408 20.5385 7.5 20.3845 7.5H5.6155C5.4615 7.5 5.32042 7.56408 5.19225 7.69225C5.06408 7.82042 5 7.9615 5 8.1155V18.8845C5 19.0385 5.06408 19.1796 5.19225 19.3077C5.32042 19.4359 5.4615 19.5 5.6155 19.5Z" fill="#373430"/>
</g>
</svg>
