<svg width="25" height="24" viewBox="0 0 25 24" fill="none" xmlns="http://www.w3.org/2000/svg">
<mask id="mask0_413_13898" style="mask-type:alpha" maskUnits="userSpaceOnUse" x="0" y="0" width="25" height="24">
<rect x="0.5" width="24" height="24" fill="#D9D9D9"/>
</mask>
<g mask="url(#mask0_413_13898)">
<path d="M12.5 13.5C11.8013 13.5 11.21 13.258 10.726 12.774C10.242 12.29 10 11.6987 10 11V5C10 4.30133 10.242 3.71 10.726 3.226C11.21 2.742 11.8013 2.5 12.5 2.5C13.1987 2.5 13.79 2.742 14.274 3.226C14.758 3.71 15 4.30133 15 5V11C15 11.6987 14.758 12.29 14.274 12.774C13.79 13.258 13.1987 13.5 12.5 13.5ZM11.75 20V17.4538C10.2615 17.2819 8.98583 16.6704 7.923 15.6193C6.86033 14.5679 6.23792 13.2865 6.05575 11.775C6.02892 11.5622 6.08467 11.3798 6.223 11.228C6.3615 11.076 6.53717 11 6.75 11C6.96283 11 7.141 11.0734 7.2845 11.2203C7.42817 11.3669 7.52375 11.5467 7.57125 11.7595C7.75325 12.984 8.31317 13.9968 9.251 14.798C10.1888 15.5993 11.2718 16 12.5 16C13.7448 16 14.832 15.5952 15.7615 14.7855C16.691 13.976 17.2467 12.9673 17.4287 11.7595C17.4762 11.5467 17.5718 11.3669 17.7155 11.2203C17.859 11.0734 18.0372 11 18.25 11C18.4628 11 18.6385 11.076 18.777 11.228C18.9153 11.3798 18.9711 11.5622 18.9442 11.775C18.7621 13.2532 18.1438 14.5247 17.0895 15.5895C16.035 16.6542 14.7552 17.2756 13.25 17.4538V20C13.25 20.2128 13.1782 20.391 13.0345 20.5345C12.891 20.6782 12.7128 20.75 12.5 20.75C12.2872 20.75 12.109 20.6782 11.9655 20.5345C11.8218 20.391 11.75 20.2128 11.75 20Z" fill="#E6E2DB"/>
</g>
</svg>
