<svg width="32" height="33" viewBox="0 0 32 33" fill="none" xmlns="http://www.w3.org/2000/svg">
<g filter="url(#filter0_dd_1219_10245)">
<path d="M16 2.8999C14.7269 2.8999 13.506 3.40562 12.6059 4.30579C11.7057 5.20596 11.2 6.42686 11.2 7.6999C11.2 8.97294 11.7057 10.1938 12.6059 11.094C13.506 11.9942 14.7269 12.4999 16 12.4999C17.273 12.4999 18.4939 11.9942 19.3941 11.094C20.2943 10.1938 20.8 8.97294 20.8 7.6999C20.8 6.42686 20.2943 5.20596 19.3941 4.30579C18.4939 3.40562 17.273 2.8999 16 2.8999ZM12.4 7.6999C12.4 6.74512 12.7793 5.82945 13.4544 5.15432C14.1295 4.47919 15.0452 4.0999 16 4.0999C16.9548 4.0999 17.8704 4.47919 18.5456 5.15432C19.2207 5.82945 19.6 6.74512 19.6 7.6999C19.6 8.65468 19.2207 9.57036 18.5456 10.2455C17.8704 10.9206 16.9548 11.2999 16 11.2999C15.0452 11.2999 14.1295 10.9206 13.4544 10.2455C12.7793 9.57036 12.4 8.65468 12.4 7.6999ZM10.0108 13.6999C9.6947 13.6985 9.38145 13.7595 9.08902 13.8795C8.79659 13.9995 8.53074 14.176 8.30673 14.399C8.08273 14.622 7.90498 14.8871 7.78369 15.179C7.66241 15.4708 7.59997 15.7838 7.59998 16.0999C7.59998 18.1291 8.59958 19.6591 10.162 20.6563C11.7004 21.6367 13.774 22.0999 16 22.0999C18.226 22.0999 20.2996 21.6367 21.838 20.6563C23.4004 19.6603 24.4 18.1279 24.4 16.0999C24.4 15.4634 24.1471 14.8529 23.697 14.4028C23.2469 13.9528 22.6365 13.6999 22 13.6999H10.0108ZM8.79998 16.0999C8.79998 15.4363 9.33758 14.8999 10.0108 14.8999H22C22.3182 14.8999 22.6235 15.0263 22.8485 15.2514C23.0735 15.4764 23.2 15.7816 23.2 16.0999C23.2 17.6707 22.4536 18.8407 21.1924 19.6435C19.9084 20.4631 18.082 20.8999 16 20.8999C13.918 20.8999 12.0916 20.4631 10.8076 19.6435C9.54758 18.8395 8.79998 17.6719 8.79998 16.0999Z" fill="#6D675F"/>
</g>
<defs>
<filter id="filter0_dd_1219_10245" x="0" y="0.5" width="32" height="32" filterUnits="userSpaceOnUse" color-interpolation-filters="sRGB">
<feFlood flood-opacity="0" result="BackgroundImageFix"/>
<feColorMatrix in="SourceAlpha" type="matrix" values="0 0 0 0 0 0 0 0 0 0 0 0 0 0 0 0 0 0 127 0" result="hardAlpha"/>
<feOffset dy="4"/>
<feGaussianBlur stdDeviation="2"/>
<feComposite in2="hardAlpha" operator="out"/>
<feColorMatrix type="matrix" values="0 0 0 0 0 0 0 0 0 0 0 0 0 0 0 0 0 0 0.25 0"/>
<feBlend mode="normal" in2="BackgroundImageFix" result="effect1_dropShadow_1219_10245"/>
<feColorMatrix in="SourceAlpha" type="matrix" values="0 0 0 0 0 0 0 0 0 0 0 0 0 0 0 0 0 0 127 0" result="hardAlpha"/>
<feOffset dy="4"/>
<feGaussianBlur stdDeviation="2"/>
<feComposite in2="hardAlpha" operator="out"/>
<feColorMatrix type="matrix" values="0 0 0 0 0 0 0 0 0 0 0 0 0 0 0 0 0 0 0.25 0"/>
<feBlend mode="normal" in2="effect1_dropShadow_1219_10245" result="effect2_dropShadow_1219_10245"/>
<feBlend mode="normal" in="SourceGraphic" in2="effect2_dropShadow_1219_10245" result="shape"/>
</filter>
</defs>
</svg>
