<svg width="24" height="24" viewBox="0 0 24 24" fill="none" xmlns="http://www.w3.org/2000/svg">
<path d="M19.996 10.621V19C19.996 19.5304 19.7853 20.0391 19.4102 20.4142C19.0351 20.7893 18.5264 21 17.996 21H6.00397C5.47371 20.9997 4.96525 20.7889 4.5904 20.4139C4.21554 20.0388 4.00497 19.5303 4.00497 19V10.621M7.50197 8.75L8.00197 3M7.50197 8.75C7.50197 11.652 12 11.652 12 8.75M7.50197 8.75C7.50197 11.926 2.34697 11.27 3.06897 8.502L4.11397 4.495C4.22565 4.06703 4.47605 3.68815 4.82598 3.41765C5.17592 3.14714 5.60566 3.00026 6.04797 3H17.952C18.3943 3.00026 18.824 3.14714 19.1739 3.41765C19.5239 3.68815 19.7743 4.06703 19.886 4.495L20.931 8.502C21.653 11.271 16.498 11.926 16.498 8.75M12 8.75V3M12 8.75C12 11.652 16.498 11.652 16.498 8.75M16.498 8.75L15.998 3" stroke="#6D675F" stroke-width="1.2" stroke-linecap="round" stroke-linejoin="round"/>
</svg>
