<svg width="24" height="25" viewBox="0 0 24 25" fill="none" xmlns="http://www.w3.org/2000/svg">
<path d="M16.8302 9.83788L16.3262 10.7272C15.8518 11.5638 15.6141 11.9817 15.0976 12.0181C14.5801 12.0545 14.3616 11.7555 13.9236 11.1575C13.4368 10.4877 13.1246 9.70706 13.0151 8.88625C12.9126 8.12054 12.8618 7.73817 12.7372 7.54938C12.5398 7.24942 12.1411 7.08459 11.844 6.91017C11.0611 6.45017 10.6691 6.22017 10.5666 5.82821C10.4631 5.43817 10.6893 5.0395 11.1416 4.24217C11.5939 3.44484 11.8201 3.04617 12.2044 2.94171C12.5877 2.83629 12.9806 3.06725 13.7636 3.52725C14.0607 3.70263 14.3999 3.97 14.7545 3.99492C14.9768 4.01025 15.3285 3.86363 16.031 3.57134C16.7846 3.25584 17.6069 3.1403 18.4182 3.23592C19.1465 3.32313 19.5107 3.36721 19.7369 3.83967C19.965 4.31404 19.7273 4.73188 19.2529 5.5685L18.7488 6.45592M16.8302 9.83788L17.2462 10.0823C17.4645 10.2101 17.7061 10.2931 17.9569 10.3264C18.2077 10.3597 18.4626 10.3426 18.7067 10.2761C18.9508 10.2096 19.1792 10.095 19.3785 9.93915C19.5777 9.78328 19.7439 9.5892 19.8672 9.36829C20.1224 8.92009 20.1918 8.38971 20.0605 7.89093C19.9292 7.39215 19.6076 6.96471 19.1647 6.70029L18.7488 6.45592M16.8302 9.83788L18.7488 6.45592M5.75 12.5001L12.4583 7.70846M6.70833 22.0835H13.4167M5.75 15.3751L10.5417 22.0835M6.70833 13.4585C6.70833 13.9668 6.5064 14.4543 6.14695 14.8137C5.78751 15.1732 5.3 15.3751 4.79167 15.3751C4.28334 15.3751 3.79582 15.1732 3.43638 14.8137C3.07693 14.4543 2.875 13.9668 2.875 13.4585C2.875 12.9501 3.07693 12.4626 3.43638 12.1032C3.79582 11.7437 4.28334 11.5418 4.79167 11.5418C5.3 11.5418 5.78751 11.7437 6.14695 12.1032C6.5064 12.4626 6.70833 12.9501 6.70833 13.4585Z" stroke="#6D675F" stroke-width="1.2" stroke-linecap="round" stroke-linejoin="round"/>
</svg>
