<svg width="19" height="20" viewBox="0 0 19 20" fill="none" xmlns="http://www.w3.org/2000/svg">
<path d="M3.19775 19.231C2.36858 19.231 1.75333 19.0621 1.352 18.7243C0.950667 18.3864 0.75 17.8797 0.75 17.204C0.75 16.3107 1.12675 15.7409 1.88025 15.4945C2.63375 15.248 3.52567 15.1248 4.556 15.1248H5.04425V13.831C5.04425 13.3074 5.03592 12.8799 5.01925 12.5488C5.00258 12.2178 4.95533 11.9448 4.8775 11.7298C4.79983 11.5149 4.71042 11.3653 4.60925 11.2808C4.50825 11.1963 4.37567 11.154 4.2115 11.154C4.068 11.154 3.93975 11.177 3.82675 11.223C3.71375 11.2689 3.61958 11.3301 3.54425 11.4068C3.48408 11.4833 3.44567 11.5636 3.429 11.6478C3.41233 11.7319 3.42067 11.8199 3.454 11.9118C3.54517 12.0813 3.65158 12.2469 3.77325 12.4085C3.89492 12.5702 3.95575 12.7589 3.95575 12.9745C3.95575 13.3597 3.82117 13.6869 3.552 13.956C3.28267 14.2252 2.95575 14.3598 2.57125 14.3598C2.18658 14.3598 1.85967 14.2256 1.5905 13.9573C1.32117 13.6888 1.1865 13.3628 1.1865 12.9793C1.1865 12.5651 1.27883 12.2264 1.4635 11.9633C1.64817 11.7001 1.89817 11.4911 2.2135 11.3363C2.52883 11.1814 2.89425 11.0739 3.30975 11.0138C3.72508 10.9534 4.17117 10.9233 4.648 10.9233C5.95583 10.9233 6.86392 11.1566 7.37225 11.6233C7.88058 12.0899 8.13475 12.9162 8.13475 14.102V17.4978C8.13475 17.7905 8.17058 18.0069 8.24225 18.1473C8.31408 18.2878 8.43333 18.358 8.6 18.358C8.78183 18.358 8.9295 18.2176 9.043 17.9368C9.15667 17.6559 9.22917 17.2245 9.2605 16.6425H9.51925C9.47292 17.5979 9.29158 18.2681 8.97525 18.6533C8.65892 19.0384 8.13033 19.231 7.3895 19.231C6.726 19.231 6.20608 19.1281 5.82975 18.9223C5.45358 18.7166 5.21358 18.4048 5.10975 17.9868C4.95608 18.4323 4.7295 18.751 4.43 18.943C4.13067 19.135 3.71992 19.231 3.19775 19.231ZM11.8015 19.231C11.4877 19.231 11.2378 19.1031 11.052 18.8473C10.866 18.5916 10.8343 18.3177 10.957 18.0255L13.302 11.8215C13.4058 11.5574 13.5747 11.3416 13.8087 11.1743C14.0426 11.0069 14.305 10.9233 14.596 10.9233C14.8872 10.9233 15.1497 11.0069 15.3835 11.1743C15.6175 11.3416 15.7864 11.5574 15.8903 11.8215L18.2353 18.0255C18.3579 18.3177 18.3263 18.5916 18.1402 18.8473C17.9544 19.1031 17.7048 19.231 17.3915 19.231C17.2035 19.231 17.0327 19.1772 16.879 19.0695C16.7253 18.962 16.6101 18.816 16.5333 18.6315L16.072 17.2945H13.1212L12.6605 18.6315C12.599 18.8007 12.4915 18.9429 12.338 19.058C12.1845 19.1734 12.0057 19.231 11.8015 19.231ZM4.33125 18.5638C4.53225 18.5638 4.70133 18.4059 4.8385 18.09C4.97567 17.7742 5.04425 17.3929 5.04425 16.9463V15.3983C4.64425 15.3983 4.35192 15.5178 4.16725 15.7568C3.98275 15.9958 3.8905 16.3851 3.8905 16.9248V17.1793C3.8905 17.7343 3.92142 18.1038 3.98325 18.2878C4.04508 18.4718 4.16108 18.5638 4.33125 18.5638ZM13.723 15.679H15.4943L14.596 13.0503L13.723 15.679ZM12.8685 9.10228C12.1305 9.10228 11.5417 8.84395 11.102 8.32728C10.6622 7.81062 10.4423 7.1147 10.4423 6.23953C10.4423 4.64286 10.949 3.33203 11.9625 2.30703C12.976 1.28203 14.2773 0.769531 15.8665 0.769531C16.5145 0.769531 17.0375 0.842614 17.4355 0.98878C17.8337 1.13495 18.0328 1.32345 18.0328 1.55428C18.0328 1.64645 18.0177 1.73778 17.9875 1.82828C17.9573 1.91861 17.9037 2.00545 17.8267 2.08878C17.7434 2.19261 17.6456 2.26795 17.5333 2.31478C17.4208 2.36161 17.3045 2.36836 17.1845 2.33503C16.969 2.27336 16.7228 2.21945 16.4458 2.17328C16.1686 2.12728 15.9146 2.10428 15.6837 2.10428C14.5907 2.10428 13.7132 2.47345 13.051 3.21178C12.3888 3.95028 12.0577 4.9272 12.0577 6.14253C12.0577 6.4772 12.118 6.83011 12.2385 7.20128C12.359 7.57245 12.6366 7.75803 13.0712 7.75803C13.2352 7.75803 13.3983 7.7212 13.5605 7.64753C13.7227 7.5737 13.8673 7.46503 13.9943 7.32153C14.2569 7.04503 14.5002 6.5842 14.7242 5.93903C14.9482 5.29386 15.153 4.51045 15.3385 3.58878C15.369 3.38595 15.4493 3.2417 15.5795 3.15603C15.7097 3.0702 15.8896 3.02728 16.1193 3.02728C16.3949 3.02728 16.6055 3.10161 16.751 3.25028C16.8965 3.39895 16.9383 3.58136 16.8765 3.79753C16.6908 4.46086 16.557 5.03761 16.475 5.52778C16.393 6.01778 16.352 6.46186 16.352 6.86003C16.352 7.1697 16.3938 7.3942 16.4773 7.53353C16.5609 7.67286 16.6864 7.74253 16.8538 7.74253C17.0239 7.74253 17.1902 7.67912 17.3525 7.55228C17.5148 7.42528 17.7416 7.19453 18.0328 6.86003C18.0661 6.81003 18.1812 6.75803 18.378 6.70403C18.499 6.70403 18.5913 6.75028 18.6548 6.84278C18.7183 6.93528 18.75 7.06628 18.75 7.23578C18.75 7.66728 18.5038 8.08203 18.0115 8.48003C17.5192 8.8782 17.0037 9.07728 16.4653 9.07728C16.0653 9.07728 15.7223 8.96861 15.4365 8.75128C15.1507 8.53395 14.9558 8.22786 14.852 7.83303C14.6213 8.23303 14.3368 8.54453 13.9985 8.76753C13.6603 8.9907 13.2837 9.10228 12.8685 9.10228ZM1.67325 9.07728V3.99578C1.67325 3.10261 1.98767 2.34161 2.6165 1.71278C3.24533 1.08395 4.00783 0.769531 4.904 0.769531C5.8 0.769531 6.56242 1.08395 7.19125 1.71278C7.82025 2.34161 8.13475 3.10261 8.13475 3.99578V9.07728H6.2885V7.22953H3.51925V9.07728H1.67325ZM3.51925 5.38503H6.2885V4.00028C6.2885 3.61561 6.15392 3.2887 5.88475 3.01953C5.61542 2.75036 5.2885 2.61578 4.904 2.61578C4.51933 2.61578 4.19233 2.75036 3.923 3.01953C3.65383 3.2887 3.51925 3.61561 3.51925 4.00028V5.38503Z" fill="#1C1B1F"/>
</svg>
