<svg width="192" height="71" viewBox="0 0 192 71" fill="none" xmlns="http://www.w3.org/2000/svg">
<rect y="33.2812" width="4" height="3.97526" rx="1.98763" fill="#373430"/>
<rect x="13.3945" y="26.625" width="4" height="15.901" rx="2" fill="#373430"/>
<rect x="26.791" y="19.9688" width="4" height="27.8268" rx="2" fill="#373430"/>
<rect x="40.1855" y="31.0625" width="4" height="7.95052" rx="2" fill="#373430"/>
<rect x="53.582" y="17.75" width="4" height="31.8021" rx="2" fill="#373430"/>
<rect x="66.9768" y="19.9688" width="4" height="27.8268" rx="2" fill="#373430"/>
<rect x="80.373" y="24.4062" width="4" height="19.8763" rx="2" fill="#373430"/>
<rect x="93.7675" y="24.4062" width="4" height="19.8763" rx="2" fill="#373430"/>
<rect x="107.162" y="24.4062" width="4" height="19.8763" rx="2" fill="#373430"/>
<rect x="120.559" y="19.9688" width="4" height="27.8268" rx="2" fill="#373430"/>
<rect x="133.953" y="24.4062" width="4" height="19.8763" rx="2" fill="#373430"/>
<rect x="147.35" y="17.75" width="4" height="31.8021" rx="2" fill="#373430"/>
<rect x="160.744" y="24.4062" width="4" height="19.8763" rx="2" fill="#373430"/>
<rect x="174.139" y="31.0625" width="4" height="7.95052" rx="2" fill="#373430"/>
<rect x="187.535" y="33.2812" width="4" height="3.97526" rx="1.98763" fill="#373430"/>
</svg>
