<svg width="52" height="24" viewBox="0 0 52 24" fill="none" xmlns="http://www.w3.org/2000/svg">
<rect width="52" height="24" fill="#F5F5F5"/>
<g id="&#234;&#184;&#128;&#237;&#142;&#184;&#236;&#167;&#145;" clip-path="url(#clip0_105_8675)">
<rect width="360" height="740" transform="translate(-154 -180)" fill="#E6E2DB"/>
<g id="Frame 1171279610">
<g id="Group 42">
<mask id="mask0_105_8675" style="mask-type:alpha" maskUnits="userSpaceOnUse" x="0" y="0" width="52" height="24">
<rect id="Rectangle 47" x="-3.05176e-05" y="0.857422" width="52.0001" height="22.2857" fill="#D9D9D9"/>
</mask>
<g mask="url(#mask0_105_8675)">
<path id="Union" d="M31.8065 5.50727C30.6026 3.42206 27.5928 3.42206 26.3889 5.50727L19.4477 17.5298C18.2438 19.6151 19.7487 22.2216 22.1565 22.2216L34.0761 22.2216C34.0771 22.2216 34.0781 22.2216 34.0791 22.2216H47.9615C50.3693 22.2216 51.8742 19.6151 50.6703 17.5298L43.7291 5.50727C42.5252 3.42206 39.5154 3.42206 38.3115 5.50727L36.4134 8.79494C35.8114 9.83755 34.3066 9.83755 33.7046 8.79494L31.8065 5.50727Z" fill="#373430"/>
<path id="Polygon 4" d="M13.8524 18.4516C12.6485 20.5368 9.63877 20.5368 8.43487 18.4516L1.49364 6.42904C0.289739 4.34382 1.79461 1.7373 4.20241 1.7373L18.0849 1.73731C20.4927 1.73731 21.9976 4.34383 20.7937 6.42904L13.8524 18.4516Z" fill="#373430"/>
</g>
</g>
</g>
</g>
<defs>
<clipPath id="clip0_105_8675">
<rect width="360" height="740" fill="white" transform="translate(-154 -180)"/>
</clipPath>
</defs>
</svg>
