<svg width="24" height="24" viewBox="0 0 24 24" fill="none" xmlns="http://www.w3.org/2000/svg">
<g id="setting">
<path id="Vector" fill-rule="evenodd" clip-rule="evenodd" d="M14.035 2.8092C14.405 2.5432 14.925 2.4192 15.436 2.6062C16.5224 3.00418 17.5314 3.58786 18.418 4.3312C18.835 4.6812 18.988 5.1922 18.942 5.6442C18.867 6.3972 18.999 7.1242 19.362 7.7502C19.682 8.3072 20.164 8.7472 20.752 9.0572L20.977 9.1672C21.391 9.3542 21.759 9.7432 21.852 10.2802C22.0495 11.4184 22.0495 12.582 21.852 13.7202C21.769 14.2042 21.462 14.5672 21.099 14.7712L20.977 14.8342C20.287 15.1442 19.723 15.6242 19.361 16.2502C18.999 16.8772 18.867 17.6032 18.942 18.3562C18.987 18.8082 18.835 19.3202 18.418 19.6692C17.5314 20.4125 16.5224 20.9962 15.436 21.3942C15.2038 21.4773 14.9548 21.5022 14.7108 21.4668C14.4667 21.4314 14.235 21.3368 14.036 21.1912C13.42 20.7502 12.723 20.5002 12 20.5002C11.277 20.5002 10.58 20.7492 9.965 21.1912C9.76584 21.337 9.534 21.4317 9.28976 21.4671C9.04552 21.5024 8.79633 21.4774 8.564 21.3942C7.4776 20.9962 6.4686 20.4126 5.582 19.6692C5.39422 19.5097 5.2483 19.3066 5.15697 19.0778C5.06564 18.8489 5.03166 18.6012 5.058 18.3562C5.133 17.6032 5 16.8762 4.638 16.2502C4.30829 15.6913 3.82613 15.2379 3.248 14.9432L3.023 14.8332C2.79734 14.7332 2.59961 14.5795 2.44708 14.3855C2.29454 14.1915 2.19186 13.9631 2.148 13.7202C1.95043 12.582 1.95043 11.4184 2.148 10.2802C2.231 9.7962 2.538 9.4332 2.901 9.2292L3.023 9.1672C3.713 8.8562 4.277 8.3772 4.639 7.7502C5 7.1242 5.133 6.3972 5.058 5.6442C5.03166 5.39921 5.06564 5.15149 5.15697 4.92264C5.2483 4.69379 5.39422 4.49074 5.582 4.3312C6.46861 3.58786 7.47761 3.00418 8.564 2.6062C8.79621 2.52323 9.04519 2.49836 9.28922 2.53374C9.53325 2.56913 9.76492 2.6637 9.964 2.8092C10.579 3.2512 11.276 3.5002 12 3.5002C12.724 3.5002 13.42 3.2512 14.035 2.8092ZM14.992 4.5782C14.126 5.1482 13.105 5.5002 12 5.5002C10.895 5.5002 9.874 5.1472 9.008 4.5782C8.31183 4.8592 7.65874 5.23692 7.068 5.7002C7.128 6.7332 6.923 7.7932 6.371 8.7502C5.818 9.7062 5.003 10.4132 4.078 10.8782C3.97378 11.6219 3.97378 12.3765 4.078 13.1202C5.003 13.5852 5.818 14.2922 6.371 15.2502C6.923 16.2052 7.128 17.2652 7.068 18.2982C7.65868 18.7618 8.31177 19.1399 9.008 19.4212C9.874 18.8512 10.895 18.4992 12 18.4992C13.105 18.4992 14.126 18.8522 14.992 19.4212C15.6881 19.1402 16.3412 18.7625 16.932 18.2992C16.872 17.2652 17.077 16.2052 17.629 15.2492C18.181 14.2922 18.997 13.5852 19.922 13.1192C20.0262 12.3762 20.0262 11.6222 19.922 10.8792C18.997 10.4132 18.182 9.7062 17.629 8.7492C17.077 7.7932 16.872 6.7332 16.932 5.6992C16.3413 5.23592 15.6882 4.8592 14.992 4.5782ZM12 8.0002C13.0609 8.0002 14.0783 8.42163 14.8284 9.17177C15.5786 9.92192 16 10.9393 16 12.0002C16 13.0611 15.5786 14.0785 14.8284 14.8286C14.0783 15.5788 13.0609 16.0002 12 16.0002C10.9391 16.0002 9.92172 15.5788 9.17157 14.8286C8.42142 14.0785 8 13.0611 8 12.0002C8 10.9393 8.42142 9.92192 9.17157 9.17177C9.92172 8.42163 10.9391 8.0002 12 8.0002ZM12 10.0002C11.4696 10.0002 10.9609 10.2109 10.5858 10.586C10.2107 10.9611 10 11.4698 10 12.0002C10 12.5306 10.2107 13.0393 10.5858 13.4144C10.9609 13.7895 11.4696 14.0002 12 14.0002C12.5304 14.0002 13.0391 13.7895 13.4142 13.4144C13.7893 13.0393 14 12.5306 14 12.0002C14 11.4698 13.7893 10.9611 13.4142 10.586C13.0391 10.2109 12.5304 10.0002 12 10.0002Z" fill="#383838"/>
</g>
</svg>
