<svg width="64" height="64" viewBox="0 0 64 64" fill="none" xmlns="http://www.w3.org/2000/svg">
<rect width="64" height="64" rx="32" fill="#373430"/>
<mask id="mask0_2_16669" style="mask-type:alpha" maskUnits="userSpaceOnUse" x="9" y="22" width="44" height="20">
<rect x="9.46924" y="22.8572" width="43.4286" height="18.6122" fill="#D9D9D9"/>
</mask>
<g mask="url(#mask0_2_16669)">
<path d="M36.0329 26.7397C35.0274 24.9982 32.5138 24.9982 31.5084 26.7397L25.7113 36.7805C24.7058 38.522 25.9627 40.6989 27.9736 40.6989L37.9284 40.6989C37.9293 40.6989 37.9301 40.6989 37.9309 40.6989H49.525C51.5359 40.6989 52.7927 38.522 51.7873 36.7805L45.9902 26.7397C44.9848 24.9982 42.4711 24.9982 41.4657 26.7397L39.8804 29.4855C39.3777 30.3562 38.1209 30.3562 37.6182 29.4855L36.0329 26.7397Z" fill="white"/>
<path d="M21.0375 37.5511C20.0321 39.2926 17.5184 39.2926 16.513 37.5511L10.7159 27.5102C9.71048 25.7687 10.9673 23.5919 12.9782 23.5919L24.5723 23.5919C26.5832 23.5919 27.8401 25.7687 26.8346 27.5102L21.0375 37.5511Z" fill="white"/>
</g>
</svg>
