<svg width="48" height="48" viewBox="0 0 48 48" fill="none" xmlns="http://www.w3.org/2000/svg">
<g clip-path="url(#clip0_97_8411)">
<circle cx="24" cy="24" r="24" fill="#373430"/>
<path d="M18 32.8364V16.1612C18.0003 15.9526 18.0557 15.7479 18.1603 15.5686C18.2648 15.3893 18.4148 15.2419 18.5943 15.142C18.7739 15.0421 18.9766 14.9933 19.181 15.0007C19.3854 15.0081 19.5841 15.0715 19.7563 15.1842L32.4748 23.5194C32.6358 23.6247 32.7683 23.7695 32.8601 23.9407C32.9519 24.1118 33 24.3038 33 24.4988C33 24.6939 32.9519 24.8858 32.8601 25.057C32.7683 25.2281 32.6358 25.373 32.4748 25.4782L19.7563 33.8158C19.5841 33.9285 19.3854 33.9919 19.181 33.9993C18.9766 34.0067 18.7739 33.9579 18.5943 33.858C18.4148 33.7581 18.2648 33.6107 18.1603 33.4314C18.0557 33.2521 18.0003 33.0474 18 32.8388V32.8364Z" fill="#E6E2DB"/>
<path d="M18 32.8364V16.1612C18.0003 15.9526 18.0557 15.7479 18.1603 15.5686C18.2648 15.3893 18.4148 15.2419 18.5943 15.142C18.7739 15.0421 18.9766 14.9933 19.181 15.0007C19.3854 15.0081 19.5841 15.0715 19.7563 15.1842L32.4748 23.5194C32.6358 23.6247 32.7683 23.7695 32.8601 23.9407C32.9519 24.1118 33 24.3038 33 24.4988C33 24.6939 32.9519 24.8858 32.8601 25.057C32.7683 25.2281 32.6358 25.373 32.4748 25.4782L19.7563 33.8158C19.5841 33.9285 19.3854 33.9919 19.181 33.9993C18.9766 34.0067 18.7739 33.9579 18.5943 33.858C18.4148 33.7581 18.2648 33.6107 18.1603 33.4314C18.0557 33.2521 18.0003 33.0474 18 32.8388V32.8364Z" fill="#E6E2DB"/>
</g>
<defs>
<clipPath id="clip0_97_8411">
<rect width="48" height="48" fill="white"/>
</clipPath>
</defs>
</svg>
